<svg width="185" height="50" viewBox="0 0 185 50" fill="none" xmlns="http://www.w3.org/2000/svg">
<mask id="mask0_784_128" style="mask-type:luminance" maskUnits="userSpaceOnUse" x="0" y="0" width="185" height="50">
<path d="M184.951 0H0V50H184.951V0Z" fill="white"/>
</mask>
<g mask="url(#mask0_784_128)">
<path d="M55.3181 0H20.7634C9.29787 0 0 9.34085 0 20.8594C0 32.378 9.29787 41.7188 20.7634 41.7188H33.9275L55.9659 50L56.0239 41.7188H55.3181C66.7835 41.7188 76.0813 32.378 76.0813 20.8594C76.0813 9.34085 66.7835 0 55.3181 0ZM62.0702 22.2904C58.9058 22.2904 56.2314 20.2003 55.3303 17.3175L27.0216 20.413C27.0008 21.2432 26.8887 22.0484 26.6893 22.816L40.1192 27.4719C41.0327 26.3246 42.4364 25.5862 44.0144 25.5862C46.7676 25.5862 48.9976 27.8264 48.9976 30.5924C48.9976 33.3583 46.7676 35.5987 44.0144 35.5987C41.2611 35.5987 39.0311 33.3583 39.0311 30.5924C39.0311 30.4172 39.0394 30.2461 39.0561 30.0793L25.618 25.4193C23.8157 28.5148 20.4769 30.5966 16.6523 30.5966C10.9174 30.5966 6.27058 25.9282 6.27058 20.1669C6.27058 14.4055 10.9174 9.73718 16.6523 9.73718C21.5317 9.73718 25.6263 13.1206 26.735 17.6804L55.0441 14.5849C55.3553 10.9554 58.3787 8.11016 62.0744 8.11016C65.9739 8.11016 69.134 11.2849 69.134 15.2023C69.134 19.1197 65.9739 22.2945 62.0744 22.2945L62.0702 22.2904Z" fill="#F49616"/>
<path d="M114.227 12.9329V30.8387C114.227 31.0681 114.04 31.2558 113.812 31.2558H109.037C108.808 31.2558 108.621 31.0681 108.621 30.8387V12.9329C108.621 12.2988 108.393 11.7523 107.936 11.2934C107.479 10.8345 106.935 10.6051 106.304 10.6051H103.43C103.202 10.6051 103.015 10.7928 103.015 11.0222V30.8387C103.015 31.0681 102.828 31.2558 102.6 31.2558H97.8243C97.5956 31.2558 97.4089 31.0681 97.4089 30.8387V11.0222C97.4089 10.7928 97.2222 10.6051 96.9935 10.6051H93.5759C93.5052 10.6051 93.435 10.6217 93.3764 10.6551C92.3302 11.2141 91.8068 11.9734 91.8068 12.9329V30.8387C91.8068 31.0681 91.6201 31.2558 91.3919 31.2558H86.6158C86.3876 31.2558 86.2009 31.0681 86.2009 30.8387V12.9329C86.2174 10.9972 86.8488 9.27835 88.0945 7.77649C89.0743 6.60835 90.3121 5.79069 91.8068 5.32341C92.5546 5.08981 93.335 4.97299 94.1488 4.97299H106.308C107.105 4.97299 107.878 5.08981 108.625 5.32341C110.12 5.79069 111.366 6.60835 112.363 7.77649C113.592 9.27835 114.215 10.9972 114.231 12.9329H114.227ZM131.096 24.3973C131.419 24.0844 131.698 23.7381 131.926 23.3543C132.001 23.2291 132.134 23.1457 132.283 23.1457H137.424C137.698 23.1457 137.906 23.4127 137.823 23.6797C136.963 26.4665 135.227 28.5775 132.619 30.0042C131.058 30.8387 129.339 31.2558 127.462 31.2558C125.585 31.2558 123.891 30.8387 122.329 30.0042C121.482 29.5537 120.709 29.003 120.012 28.3522C118.749 27.1841 117.836 25.7823 117.271 24.147C116.906 23.1123 116.723 22.0277 116.723 20.8929V19.5412C116.723 17.5888 117.234 15.8115 118.255 14.2095C119.277 12.6076 120.635 11.356 122.329 10.4548C123.891 9.62048 125.601 9.2033 127.462 9.2033C129.322 9.2033 131.058 9.62048 132.619 10.4548C133.467 10.9054 134.239 11.4561 134.937 12.1069C136.116 13.1999 136.992 14.489 137.565 15.9784C137.636 16.1578 137.565 16.3664 137.408 16.4749L132.619 19.7456L125.344 24.7102C125.078 24.8937 125.107 25.3067 125.402 25.4361C126.033 25.7156 126.723 25.8532 127.462 25.8532C128.89 25.8532 130.103 25.3693 131.1 24.4014L131.096 24.3973ZM122.325 19.5412V19.9041C122.325 20.2379 122.699 20.4381 122.973 20.2504L129.597 15.7323C129.862 15.5487 129.833 15.1357 129.538 15.0064C128.895 14.7269 128.205 14.5892 127.458 14.5892C126.046 14.5892 124.838 15.0731 123.832 16.041C122.827 17.0089 122.325 18.177 122.325 19.5454V19.5412ZM156.36 21.2683L157.257 23.0456L161.044 30.6509C161.182 30.9263 160.982 31.2558 160.675 31.2558H155.326C155.168 31.2558 155.027 31.1682 154.957 31.0264L147.623 16.3122C147.623 16.3122 147.598 16.3205 147.598 16.3372C146.734 17.1882 146.236 18.2479 146.104 19.5162H146.079V30.8387C146.079 31.0681 145.891 31.2558 145.663 31.2558H140.888C140.659 31.2558 140.472 31.0681 140.472 30.8387V5.39016C140.472 5.16073 140.659 4.97299 140.888 4.97299H145.663C145.891 4.97299 146.079 5.16073 146.079 5.39016V9.82489C146.079 10.1294 146.39 10.3339 146.664 10.2045C147.802 9.66638 149.035 9.34096 150.364 9.2283C150.647 9.19495 150.929 9.17824 151.211 9.17824C153.088 9.17824 154.807 9.62048 156.369 10.5049C156.95 10.8261 157.502 11.1974 158.026 11.623C158.2 11.7648 158.225 12.0235 158.088 12.2029L155.168 16.0035C155.027 16.187 154.758 16.2246 154.583 16.0744C154.226 15.7698 153.823 15.5153 153.375 15.3109L153.674 15.8616L154.297 17.1382L156.365 21.2683H156.36ZM165.118 5.18993C167.307 4.57666 168.968 5.26502 170.098 7.2592C170.567 8.94878 170.272 10.3213 169.217 11.381C168.163 12.4406 166.796 12.7369 165.118 12.2654C163.599 11.3977 162.839 10.217 162.839 8.72766C162.839 7.2383 163.599 6.05766 165.114 5.18993H165.118ZM163.785 30.8387V14.7769C163.785 14.5474 163.972 14.3597 164.201 14.3597H168.976C169.205 14.3597 169.392 14.5474 169.392 14.7769V30.8387C169.392 31.0681 169.205 31.2558 168.976 31.2558H164.201C163.972 31.2558 163.785 31.0681 163.785 30.8387ZM178.386 5.49032V10.2629C178.386 10.4924 178.573 10.6801 178.801 10.6801H183.527C183.756 10.6801 183.943 10.8679 183.943 11.0973V15.8449C183.943 16.0744 183.756 16.2621 183.527 16.2621H178.801C178.573 16.2621 178.386 16.4498 178.386 16.6793V21.8107C178.386 21.8774 178.403 21.9442 178.432 22.0026C179.624 24.3973 181.31 25.5946 183.494 25.5946C183.644 25.5946 183.793 25.5863 183.943 25.5696V31.1766C183.793 31.1932 183.644 31.2016 183.494 31.2016C181.634 31.2016 179.931 30.7677 178.386 29.9C176.692 28.9655 175.338 27.668 174.325 26.0076C173.312 24.3472 172.805 22.499 172.805 20.4632V5.49032C172.805 5.26085 172.992 5.07312 173.221 5.07312H177.971C178.199 5.07312 178.386 5.26085 178.386 5.49032Z" fill="white"/>
<path d="M86.275 38.4271C86.275 38.0767 86.3622 37.7721 86.5367 37.5134C86.7111 37.2548 86.9564 37.0504 87.2675 36.9043C87.583 36.7583 87.9484 36.6874 88.3681 36.6874C88.7457 36.6874 89.0739 36.7542 89.3564 36.8877C89.6388 37.0212 89.8633 37.2131 90.0335 37.4676C90.2037 37.7179 90.2989 38.0182 90.3282 38.3687H89.6925C89.6595 38.0182 89.5223 37.7471 89.2899 37.551C89.0574 37.3549 88.7457 37.259 88.3558 37.259C87.9197 37.259 87.5665 37.3633 87.301 37.576C87.0351 37.7846 86.8978 38.0683 86.8978 38.4271C86.8978 38.7024 86.9808 38.9277 87.1431 39.1071C87.3048 39.2865 87.55 39.4158 87.8739 39.4951L88.9452 39.7579C89.4351 39.8747 89.8005 40.0708 90.0542 40.3504C90.3032 40.6299 90.4276 40.9803 90.4276 41.4058C90.4276 41.7604 90.3404 42.0733 90.1659 42.3445C89.992 42.6115 89.7425 42.8201 89.4228 42.9661C89.1032 43.1121 88.7292 43.1872 88.2973 43.1872C87.8947 43.1872 87.5415 43.1205 87.2303 42.9869C86.9186 42.8534 86.6739 42.6616 86.4994 42.4071C86.3207 42.1567 86.217 41.8606 86.1877 41.5226H86.8314C86.8484 41.8564 86.9893 42.1192 87.2596 42.3153C87.525 42.5114 87.8739 42.6073 88.2973 42.6073C88.7585 42.6073 89.1197 42.503 89.3936 42.2902C89.6638 42.0817 89.8005 41.798 89.8005 41.4392C89.8005 41.1513 89.7218 40.9219 89.5601 40.7425C89.3978 40.5631 89.1532 40.4338 88.8122 40.3545L87.7574 40.0917C87.2675 39.9749 86.8978 39.7788 86.6447 39.4993C86.3915 39.2198 86.267 38.8651 86.267 38.4355L86.275 38.4271ZM94.568 38.8318H95.1702V43.0704H94.6468L94.568 42.3529C94.4516 42.599 94.2564 42.795 93.9867 42.9494C93.717 43.0996 93.4138 43.1789 93.0856 43.1789C92.5915 43.1789 92.2133 43.0203 91.9478 42.7074C91.6819 42.3946 91.5489 41.9774 91.5489 41.4642V38.8276H92.1595V41.2723C92.1595 41.773 92.2633 42.1275 92.4707 42.332C92.6787 42.5364 92.9441 42.6407 93.2766 42.6407C93.6835 42.6407 93.9989 42.5072 94.2276 42.2402C94.4558 41.9732 94.568 41.5894 94.568 41.0888V38.8359V38.8318ZM96.2164 40.9594C96.2164 40.5172 96.3037 40.125 96.4739 39.7913C96.6441 39.4575 96.8851 39.1906 97.1883 39.0028C97.4915 38.8151 97.8489 38.7191 98.2558 38.7191C98.7457 38.7191 99.1569 38.8484 99.4888 39.1113C99.8212 39.3741 100.029 39.7246 100.112 40.1626H99.5095C99.4266 39.8706 99.2728 39.6453 99.0489 39.4867C98.8202 39.3282 98.559 39.249 98.2638 39.249C97.9856 39.249 97.7367 39.3199 97.5122 39.4575C97.292 39.5994 97.1175 39.7955 96.993 40.05C96.8686 40.3044 96.8063 40.6048 96.8063 40.9469C96.8063 41.289 96.8643 41.581 96.9808 41.8314C97.0968 42.0817 97.2633 42.2777 97.475 42.4196C97.6867 42.5614 97.9356 42.6282 98.218 42.6282C98.5377 42.6282 98.8165 42.5489 99.0489 42.3862C99.2813 42.2277 99.4393 42.0066 99.518 41.7354H100.129C100.066 42.0233 99.9414 42.2735 99.7633 42.4905C99.5845 42.7074 99.3601 42.8743 99.0946 42.9953C98.8287 43.1163 98.5377 43.1747 98.218 43.1747C97.8196 43.1747 97.4665 43.0829 97.1675 42.8993C96.8686 42.7158 96.6361 42.4571 96.4659 42.1234C96.2957 41.7896 96.2127 41.4016 96.2127 40.9594H96.2164ZM100.926 40.9594C100.926 40.5172 101.013 40.125 101.183 39.7913C101.354 39.4575 101.594 39.1906 101.897 39.0028C102.2 38.8151 102.558 38.7191 102.965 38.7191C103.455 38.7191 103.866 38.8484 104.198 39.1113C104.53 39.3741 104.742 39.7246 104.821 40.1626H104.219C104.136 39.8706 103.982 39.6453 103.758 39.4867C103.533 39.3282 103.268 39.249 102.973 39.249C102.695 39.249 102.446 39.3199 102.221 39.4575C101.997 39.5952 101.827 39.7955 101.702 40.05C101.578 40.3044 101.515 40.6048 101.515 40.9469C101.515 41.289 101.573 41.581 101.69 41.8314C101.806 42.0817 101.968 42.2777 102.184 42.4196C102.396 42.5614 102.645 42.6282 102.931 42.6282C103.252 42.6282 103.525 42.5489 103.762 42.3862C103.995 42.2277 104.153 42.0066 104.231 41.7354H104.842C104.78 42.0233 104.655 42.2735 104.477 42.4905C104.298 42.7074 104.073 42.8743 103.808 42.9953C103.542 43.1163 103.252 43.1747 102.931 43.1747C102.529 43.1747 102.18 43.0829 101.881 42.8993C101.582 42.7158 101.345 42.4571 101.179 42.1234C101.009 41.7896 100.926 41.4016 100.926 40.9594ZM107.703 43.1747C107.296 43.1747 106.939 43.0829 106.628 42.8952C106.316 42.7074 106.075 42.4488 105.9 42.115C105.727 41.7813 105.639 41.3933 105.639 40.9511C105.639 40.5089 105.727 40.125 105.897 39.7913C106.067 39.4575 106.304 39.1906 106.607 39.0028C106.91 38.8151 107.263 38.7191 107.662 38.7191C108.06 38.7191 108.38 38.8026 108.671 38.9736C108.957 39.1447 109.181 39.3783 109.343 39.6787C109.501 39.979 109.584 40.3294 109.584 40.7341V41.0304H105.975L105.992 40.5923H108.982C108.982 40.1834 108.862 39.8539 108.621 39.6077C108.38 39.3616 108.06 39.2364 107.665 39.2364C107.375 39.2364 107.122 39.3032 106.902 39.4367C106.686 39.5702 106.515 39.7621 106.399 40.0124C106.283 40.2627 106.224 40.5548 106.224 40.8927C106.224 41.4517 106.353 41.8898 106.611 42.1985C106.868 42.5072 107.238 42.6616 107.715 42.6616C108.06 42.6616 108.338 42.5906 108.563 42.4446C108.787 42.2986 108.932 42.0858 109.007 41.8063H109.584C109.472 42.2485 109.26 42.5906 108.94 42.8284C108.621 43.0662 108.21 43.1831 107.711 43.1831L107.703 43.1747ZM110.353 41.8814H110.93C110.93 42.1275 111.017 42.3194 111.191 42.4655C111.366 42.6073 111.598 42.6782 111.889 42.6782C112.213 42.6782 112.47 42.6115 112.653 42.4822C112.836 42.3529 112.927 42.1693 112.927 41.944C112.927 41.7688 112.877 41.6269 112.778 41.5226C112.678 41.4183 112.504 41.3307 112.254 41.2681L111.532 41.0846C111.166 40.9928 110.892 40.8468 110.714 40.6549C110.535 40.463 110.444 40.221 110.444 39.9373C110.444 39.6911 110.506 39.4784 110.635 39.2948C110.763 39.1113 110.942 38.9694 111.171 38.8693C111.399 38.7692 111.665 38.7191 111.968 38.7191C112.271 38.7191 112.524 38.7734 112.744 38.8776C112.964 38.982 113.139 39.1322 113.263 39.3199C113.388 39.5076 113.454 39.7371 113.458 39.9999H112.873C112.869 39.7496 112.782 39.5577 112.62 39.42C112.458 39.2865 112.233 39.2198 111.947 39.2198C111.661 39.2198 111.424 39.2823 111.262 39.4033C111.1 39.5243 111.021 39.6995 111.021 39.929C111.021 40.2544 111.249 40.4797 111.711 40.5965L112.433 40.78C112.798 40.8718 113.068 41.0095 113.239 41.1931C113.409 41.3724 113.496 41.6144 113.496 41.919C113.496 42.1693 113.43 42.3904 113.297 42.5865C113.164 42.7825 112.977 42.9285 112.736 43.0287C112.495 43.1288 112.213 43.1831 111.893 43.1831C111.424 43.1831 111.046 43.0662 110.767 42.8284C110.489 42.5906 110.348 42.2777 110.348 41.8856L110.353 41.8814ZM114.314 41.8814H114.891C114.891 42.1275 114.979 42.3194 115.153 42.4655C115.327 42.6073 115.56 42.6782 115.85 42.6782C116.174 42.6782 116.432 42.6115 116.615 42.4822C116.797 42.3529 116.889 42.1693 116.889 41.944C116.889 41.7688 116.839 41.6269 116.739 41.5226C116.64 41.4183 116.465 41.3307 116.216 41.2681L115.494 41.0846C115.128 40.9928 114.854 40.8468 114.675 40.6549C114.497 40.463 114.405 40.221 114.405 39.9373C114.405 39.6911 114.467 39.4784 114.596 39.2948C114.725 39.1113 114.904 38.9694 115.132 38.8693C115.361 38.7692 115.627 38.7191 115.929 38.7191C116.232 38.7191 116.486 38.7734 116.706 38.8776C116.926 38.982 117.1 39.1322 117.225 39.3199C117.35 39.5076 117.416 39.7371 117.42 39.9999H116.835C116.831 39.7496 116.744 39.5577 116.581 39.42C116.42 39.2865 116.195 39.2198 115.908 39.2198C115.622 39.2198 115.386 39.2823 115.223 39.4033C115.062 39.5243 114.982 39.6995 114.982 39.929C114.982 40.2544 115.211 40.4797 115.672 40.5965L116.395 40.78C116.76 40.8718 117.03 41.0095 117.2 41.1931C117.371 41.3724 117.458 41.6144 117.458 41.919C117.458 42.1693 117.391 42.3904 117.258 42.5865C117.125 42.7825 116.939 42.9285 116.698 43.0287C116.457 43.1288 116.174 43.1831 115.855 43.1831C115.386 43.1831 115.007 43.0662 114.729 42.8284C114.451 42.5906 114.31 42.2777 114.31 41.8856L114.314 41.8814ZM121.76 38.8318H124.044V39.3407H121.76V38.8318ZM123.201 43.0704H122.607V37.4884H123.201V43.0704ZM125.605 43.0621H125.003V36.6832H125.605V39.566C125.738 39.3074 125.933 39.103 126.187 38.9486C126.44 38.7942 126.743 38.715 127.096 38.715C127.653 38.715 128.059 38.8735 128.317 39.1947C128.574 39.5159 128.699 39.9415 128.699 40.4755V43.0704H128.097V40.609C128.097 40.2752 128.051 40.0124 127.956 39.8163C127.864 39.6202 127.731 39.4826 127.561 39.395C127.391 39.3074 127.196 39.2698 126.975 39.2698C126.672 39.2698 126.419 39.3366 126.216 39.4701C126.012 39.6035 125.858 39.783 125.755 40.0082C125.651 40.2335 125.597 40.4838 125.597 40.7592V43.0621H125.605ZM132.287 38.7775V39.3199H131.955C131.564 39.3199 131.257 39.4409 131.024 39.6787C130.796 39.9165 130.68 40.2418 130.68 40.6507V43.0704H130.078V38.8318H130.647L130.7 39.6662H130.638C130.696 39.3908 130.838 39.1697 131.066 38.9944C131.295 38.8192 131.569 38.7358 131.897 38.7358C131.959 38.7358 132.025 38.7358 132.088 38.7442C132.15 38.7525 132.221 38.7608 132.287 38.7775ZM132.802 40.9511C132.802 40.513 132.893 40.1292 133.08 39.7955C133.267 39.4617 133.52 39.1989 133.848 39.007C134.172 38.8151 134.542 38.7191 134.949 38.7191C135.356 38.7191 135.73 38.8151 136.054 39.007C136.377 39.1989 136.631 39.4617 136.817 39.7955C137.004 40.1292 137.096 40.513 137.096 40.9511C137.096 41.3891 137.004 41.7604 136.817 42.0942C136.631 42.4321 136.377 42.6949 136.054 42.8868C135.73 43.0788 135.364 43.1747 134.949 43.1747C134.533 43.1747 134.177 43.0788 133.848 42.8868C133.524 42.6949 133.267 42.4321 133.08 42.0942C132.893 41.7604 132.802 41.3766 132.802 40.9511ZM133.412 40.9427C133.412 41.2765 133.479 41.5685 133.607 41.823C133.74 42.0775 133.919 42.2735 134.147 42.4196C134.375 42.5614 134.641 42.6324 134.945 42.6324C135.248 42.6324 135.514 42.5614 135.742 42.4196C135.97 42.2777 136.153 42.0775 136.282 41.823C136.415 41.5685 136.477 41.2765 136.477 40.9427C136.477 40.609 136.411 40.3253 136.282 40.075C136.149 39.8247 135.97 39.6245 135.742 39.4784C135.514 39.3324 135.248 39.2615 134.945 39.2615C134.641 39.2615 134.375 39.3324 134.147 39.4784C133.919 39.6245 133.736 39.8247 133.607 40.075C133.479 40.3253 133.412 40.6132 133.412 40.9427ZM141.087 38.8318H141.689V43.0704H141.165L141.087 42.3529C140.97 42.599 140.775 42.795 140.505 42.9494C140.235 43.0996 139.932 43.1789 139.604 43.1789C139.11 43.1789 138.732 43.0203 138.466 42.7074C138.2 42.3904 138.067 41.9774 138.067 41.4642V38.8276H138.678V41.2723C138.678 41.773 138.782 42.1275 138.989 42.332C139.197 42.5364 139.463 42.6407 139.795 42.6407C140.202 42.6407 140.517 42.5072 140.746 42.2402C140.974 41.9732 141.087 41.5894 141.087 41.0888V38.8359V38.8318ZM142.831 40.8301C142.831 40.4463 142.909 40.0917 143.067 39.7746C143.225 39.4575 143.449 39.1989 143.748 39.007C144.043 38.8151 144.4 38.7191 144.812 38.7191C145.223 38.7191 145.555 38.8192 145.841 39.0154C146.128 39.2156 146.331 39.4993 146.452 39.8747L146.356 39.9957L146.435 38.8318H146.958V42.941C146.958 43.3624 146.875 43.7296 146.705 44.0424C146.535 44.3554 146.298 44.5973 145.995 44.7683C145.688 44.9394 145.331 45.027 144.92 45.027C144.38 45.027 143.931 44.881 143.578 44.589C143.225 44.2969 143.001 43.8964 142.914 43.3875H143.516C143.578 43.7337 143.736 44.0007 143.981 44.1884C144.23 44.3762 144.541 44.4722 144.928 44.4722C145.364 44.4722 145.713 44.3386 145.974 44.0675C146.236 43.8005 146.369 43.4417 146.369 42.9995V41.6687L146.456 41.7813C146.336 42.1359 146.124 42.4196 145.825 42.6282C145.525 42.8368 145.177 42.941 144.774 42.941C144.371 42.941 144.027 42.8451 143.736 42.6532C143.445 42.4613 143.221 42.2068 143.067 41.8856C142.914 41.5685 142.834 41.2139 142.834 40.8301H142.831ZM143.433 40.8176C143.433 41.1096 143.491 41.3766 143.603 41.6144C143.715 41.8522 143.877 42.0441 144.093 42.1859C144.305 42.3278 144.558 42.3946 144.857 42.3946C145.156 42.3946 145.417 42.3278 145.638 42.1901C145.858 42.0525 146.024 41.8647 146.14 41.6311C146.256 41.3933 146.315 41.1263 146.315 40.8217C146.315 40.5172 146.257 40.2502 146.145 40.0166C146.032 39.783 145.866 39.5994 145.654 39.4617C145.442 39.324 145.181 39.2573 144.865 39.2573C144.55 39.2573 144.305 39.3282 144.093 39.4701C143.881 39.6119 143.719 39.8038 143.603 40.0416C143.491 40.2794 143.433 40.5381 143.433 40.8259V40.8176ZM148.985 43.0621H148.383V36.6832H148.985V39.566C149.118 39.3074 149.313 39.103 149.566 38.9486C149.82 38.7942 150.123 38.715 150.475 38.715C151.032 38.715 151.439 38.8735 151.697 39.1947C151.954 39.5159 152.079 39.9415 152.079 40.4755V43.0704H151.476V40.609C151.476 40.2752 151.431 40.0124 151.336 39.8163C151.244 39.6202 151.111 39.4826 150.941 39.395C150.771 39.3074 150.575 39.2698 150.355 39.2698C150.052 39.2698 149.799 39.3366 149.595 39.4701C149.392 39.6035 149.238 39.783 149.134 40.0082C149.031 40.2335 148.976 40.4838 148.976 40.7592V43.0621H148.985ZM156.705 41.8814H157.282C157.282 42.1275 157.369 42.3194 157.544 42.4655C157.718 42.6073 157.95 42.6782 158.241 42.6782C158.565 42.6782 158.823 42.6115 159.005 42.4822C159.188 42.3529 159.279 42.1693 159.279 41.944C159.279 41.7688 159.23 41.6269 159.13 41.5226C159.03 41.4183 158.856 41.3307 158.607 41.2681L157.884 41.0846C157.519 40.9928 157.245 40.8468 157.066 40.6549C156.888 40.463 156.796 40.221 156.796 39.9373C156.796 39.6911 156.858 39.4784 156.987 39.2948C157.116 39.1113 157.295 38.9694 157.523 38.8693C157.751 38.7692 158.017 38.7191 158.32 38.7191C158.623 38.7191 158.876 38.7734 159.097 38.8776C159.317 38.982 159.491 39.1322 159.616 39.3199C159.74 39.5076 159.807 39.7371 159.811 39.9999H159.225C159.221 39.7496 159.134 39.5577 158.972 39.42C158.81 39.2865 158.586 39.2198 158.299 39.2198C158.013 39.2198 157.776 39.2823 157.614 39.4033C157.452 39.5243 157.373 39.6995 157.373 39.929C157.373 40.2544 157.601 40.4797 158.063 40.5965L158.785 40.78C159.15 40.8718 159.421 41.0095 159.591 41.1931C159.761 41.3724 159.848 41.6144 159.848 41.919C159.848 42.1693 159.782 42.3904 159.649 42.5865C159.516 42.7825 159.329 42.9285 159.088 43.0287C158.848 43.1288 158.565 43.1831 158.246 43.1831C157.776 43.1831 157.398 43.0662 157.12 42.8284C156.842 42.5906 156.7 42.2777 156.7 41.8856L156.705 41.8814ZM161.622 43.0621H161.02V36.6832H161.622V39.566C161.754 39.3074 161.949 39.103 162.203 38.9486C162.456 38.7942 162.759 38.715 163.112 38.715C163.669 38.715 164.076 38.8735 164.333 39.1947C164.591 39.5159 164.715 39.9415 164.715 40.4755V43.0704H164.113V40.609C164.113 40.2752 164.067 40.0124 163.972 39.8163C163.881 39.6202 163.748 39.4826 163.578 39.395C163.407 39.3074 163.212 39.2698 162.992 39.2698C162.689 39.2698 162.436 39.3366 162.232 39.4701C162.029 39.6035 161.875 39.783 161.771 40.0082C161.667 40.2335 161.613 40.4838 161.613 40.7592V43.0621H161.622ZM167.307 43.1747C166.858 43.1747 166.509 43.0579 166.256 42.8242C166.003 42.5906 165.878 42.2902 165.878 41.9231C165.878 41.531 166.019 41.2181 166.297 40.9844C166.575 40.7508 166.962 40.6132 167.456 40.5714L168.851 40.4588V40.317C168.851 40.0374 168.801 39.8163 168.702 39.6537C168.602 39.4951 168.47 39.3825 168.299 39.3157C168.129 39.2531 167.942 39.2198 167.73 39.2198C167.356 39.2198 167.07 39.299 166.866 39.4575C166.663 39.6161 166.563 39.8372 166.563 40.125H166.015C166.015 39.8372 166.086 39.591 166.231 39.3783C166.376 39.1697 166.58 39.0028 166.841 38.886C167.103 38.7692 167.406 38.7108 167.747 38.7108C168.087 38.7108 168.37 38.7692 168.619 38.8818C168.868 38.9944 169.067 39.1697 169.217 39.4075C169.366 39.6453 169.441 39.9498 169.441 40.3212V43.0621H168.934L168.856 42.3153C168.727 42.5823 168.528 42.7909 168.249 42.941C167.971 43.0913 167.659 43.1664 167.303 43.1664L167.307 43.1747ZM167.448 42.6866C167.896 42.6866 168.241 42.5448 168.486 42.2569C168.731 41.969 168.851 41.5977 168.851 41.143V40.9135L167.606 41.0095C167.211 41.0429 166.924 41.143 166.75 41.3057C166.575 41.4684 166.489 41.6687 166.489 41.9023C166.489 42.1609 166.575 42.3529 166.75 42.4863C166.924 42.6198 167.157 42.6824 167.448 42.6824V42.6866ZM173.029 38.7775V39.3199H172.697C172.306 39.3199 171.999 39.4409 171.766 39.6787C171.538 39.9165 171.422 40.2418 171.422 40.6507V43.0704H170.82V38.8318H171.389L171.442 39.6662H171.38C171.439 39.3908 171.58 39.1697 171.808 38.9944C172.037 38.8192 172.311 38.7358 172.639 38.7358C172.701 38.7358 172.767 38.7358 172.83 38.7442C172.892 38.7525 172.963 38.7608 173.029 38.7775ZM174.3 37.6637C174.179 37.6637 174.071 37.6219 173.984 37.5301C173.897 37.4425 173.855 37.3382 173.855 37.2131C173.855 37.0879 173.897 36.9836 173.984 36.8918C174.071 36.8001 174.175 36.7542 174.3 36.7542C174.424 36.7542 174.528 36.8001 174.62 36.8918C174.711 36.9836 174.756 37.0879 174.756 37.2131C174.756 37.3382 174.711 37.4425 174.62 37.5301C174.528 37.6177 174.424 37.6637 174.3 37.6637ZM174.005 43.0704V38.8318H174.607V43.0704H174.005ZM176.638 43.0704H176.035V38.8318H176.559L176.646 39.566C176.787 39.299 176.987 39.0904 177.244 38.9402C177.501 38.79 177.784 38.715 178.095 38.715C178.676 38.715 179.096 38.8735 179.349 39.1947C179.607 39.5159 179.731 39.9415 179.731 40.4755V43.0704H179.129V40.609C179.129 40.1125 179.025 39.7663 178.818 39.566C178.61 39.3658 178.332 39.2698 177.983 39.2698C177.551 39.2698 177.219 39.4158 176.987 39.7037C176.75 39.9916 176.633 40.3754 176.633 40.8551V43.0704H176.638ZM180.824 40.8301C180.824 40.4463 180.903 40.0917 181.061 39.7746C181.218 39.4575 181.442 39.1989 181.741 39.007C182.036 38.8151 182.393 38.7191 182.804 38.7191C183.215 38.7191 183.548 38.8192 183.834 39.0154C184.121 39.2156 184.324 39.4993 184.445 39.8747L184.349 39.9957L184.428 38.8318H184.951V42.941C184.951 43.3624 184.868 43.7296 184.698 44.0424C184.528 44.3554 184.291 44.5973 183.988 44.7683C183.681 44.9394 183.323 45.027 182.912 45.027C182.373 45.027 181.924 44.881 181.571 44.589C181.218 44.2969 180.994 43.8964 180.907 43.3875H181.509C181.571 43.7337 181.729 44.0007 181.974 44.1884C182.223 44.3762 182.534 44.4722 182.921 44.4722C183.357 44.4722 183.706 44.3386 183.967 44.0675C184.229 43.8005 184.362 43.4417 184.362 42.9995V41.6687L184.449 41.7813C184.329 42.1359 184.117 42.4196 183.817 42.6282C183.518 42.8368 183.17 42.941 182.767 42.941C182.364 42.941 182.02 42.8451 181.729 42.6532C181.438 42.4613 181.214 42.2068 181.061 41.8856C180.907 41.5685 180.828 41.2139 180.828 40.8301H180.824ZM181.426 40.8176C181.426 41.1096 181.484 41.3766 181.596 41.6144C181.708 41.8522 181.87 42.0441 182.086 42.1859C182.298 42.3278 182.551 42.3946 182.85 42.3946C183.149 42.3946 183.41 42.3278 183.631 42.1901C183.851 42.0525 184.017 41.8647 184.133 41.6311C184.249 41.3933 184.308 41.1263 184.308 40.8217C184.308 40.5172 184.249 40.2502 184.138 40.0166C184.025 39.783 183.859 39.5994 183.647 39.4617C183.435 39.324 183.174 39.2573 182.858 39.2573C182.543 39.2573 182.298 39.3282 182.086 39.4701C181.874 39.6119 181.712 39.8038 181.596 40.0416C181.484 40.2794 181.426 40.5381 181.426 40.8259V40.8176Z" fill="white"/>
</g>
</svg>
