<svg width="310" height="276" viewBox="0 0 310 276" fill="none" xmlns="http://www.w3.org/2000/svg">
<path d="M219.929 254.978H212.982V255.178H219.929V254.978Z" fill="#EBEBEB"/>
<path d="M287.528 245.405H272.187V245.605H287.528V245.405Z" fill="#EBEBEB"/>
<path d="M43.7923 246.745H38.732V246.945H43.7923V246.745Z" fill="#EBEBEB"/>
<path d="M135.134 250.112H60.2444V250.312H135.134V250.112Z" fill="#EBEBEB"/>
<path d="M148.876 73.6188H35.3745V239.693H148.876V73.6188Z" fill="#F0F0F0"/>
<path d="M144.863 78.8442H39.3795V109.519H144.863V78.8442Z" fill="#E0E0E0"/>
<path d="M45.3752 83.8065H39.3795V109.511H45.3752V83.8065Z" fill="#EBEBEB"/>
<path d="M74.3542 83.8065H68.3586V109.511H74.3542V83.8065Z" fill="#EBEBEB"/>
<path d="M107.244 83.1609L101.335 84.1772L105.711 109.508L111.619 108.492L107.244 83.1609Z" fill="#EBEBEB"/>
<path d="M52.8018 87.1971H46.8062V109.519H52.8018V87.1971Z" fill="#EBEBEB"/>
<path d="M66.5759 87.1971H60.5802V109.519H66.5759V87.1971Z" fill="#EBEBEB"/>
<path d="M101.343 87.1971H95.3471V109.519H101.343V87.1971Z" fill="#EBEBEB"/>
<path d="M82.2295 86.4225L76.3766 87.7206L81.2294 109.511L87.0822 108.213L82.2295 86.4225Z" fill="#EBEBEB"/>
<path d="M57.9821 82.53H54.9843V109.511H57.9821V82.53Z" fill="#EBEBEB"/>
<path d="M93.6203 82.53H90.6225V109.511H93.6203V82.53Z" fill="#EBEBEB"/>
<path d="M39.3876 145.052H144.871V114.377L39.3876 114.377V145.052Z" fill="#E0E0E0"/>
<path d="M138.868 145.044H144.863V119.34H138.868V145.044Z" fill="#EBEBEB"/>
<path d="M109.897 145.044H115.892V119.34H109.897V145.044Z" fill="#EBEBEB"/>
<path d="M72.6332 144.023L78.5417 145.039L82.917 119.708L77.0084 118.692L72.6332 144.023Z" fill="#EBEBEB"/>
<path d="M131.441 145.052H137.437V122.73H131.441V145.052Z" fill="#EBEBEB"/>
<path d="M117.675 145.052H123.671V122.73H117.675V145.052Z" fill="#EBEBEB"/>
<path d="M82.9081 145.052H88.9037V122.73H82.9081V145.052Z" fill="#EBEBEB"/>
<path d="M97.1881 143.748L103.041 145.046L107.894 123.256L102.041 121.958L97.1881 143.748Z" fill="#EBEBEB"/>
<path d="M126.261 145.044H129.259V118.063H126.261V145.044Z" fill="#EBEBEB"/>
<path d="M90.6305 145.044H93.6284V118.063H90.6305V145.044Z" fill="#EBEBEB"/>
<path d="M45.3752 119.34H39.3795V145.044H45.3752V119.34Z" fill="#EBEBEB"/>
<path d="M52.8018 122.722H46.8062V145.044H52.8018V122.722Z" fill="#EBEBEB"/>
<path d="M66.5759 122.722H60.5802V145.044H66.5759V122.722Z" fill="#EBEBEB"/>
<path d="M57.9821 118.063H54.9843V145.044H57.9821V118.063Z" fill="#EBEBEB"/>
<path d="M144.863 149.903H39.3795V180.577H144.863V149.903Z" fill="#E0E0E0"/>
<path d="M105.923 154.865H99.9278V180.569H105.923V154.865Z" fill="#EBEBEB"/>
<path d="M138.818 154.217L132.909 155.234L137.285 180.565L143.193 179.548L138.818 154.217Z" fill="#EBEBEB"/>
<path d="M84.371 158.255H78.3754V180.577H84.371V158.255Z" fill="#EBEBEB"/>
<path d="M98.1451 158.255H92.1494V180.577H98.1451V158.255Z" fill="#EBEBEB"/>
<path d="M132.912 158.255H126.916V180.577H132.912V158.255Z" fill="#EBEBEB"/>
<path d="M113.801 157.482L107.948 158.78L112.801 180.57L118.654 179.272L113.801 157.482Z" fill="#EBEBEB"/>
<path d="M89.5512 153.588H86.5534V180.569H89.5512V153.588Z" fill="#EBEBEB"/>
<path d="M125.19 153.588H122.192V180.569H125.19V153.588Z" fill="#EBEBEB"/>
<path d="M69.8784 154.223L63.9698 155.24L68.3451 180.571L74.2537 179.554L69.8784 154.223Z" fill="#EBEBEB"/>
<path d="M63.9698 158.255H57.9741V180.577H63.9698V158.255Z" fill="#EBEBEB"/>
<path d="M44.8623 157.482L39.0095 158.78L43.8622 180.57L49.715 179.272L44.8623 157.482Z" fill="#EBEBEB"/>
<path d="M56.2553 153.588H53.2575V180.569H56.2553V153.588Z" fill="#EBEBEB"/>
<path d="M15.7886 240.124H35.3745L35.3745 73.6189H15.7886L15.7886 240.124Z" fill="#E0E0E0"/>
<path d="M215.308 235.776H198.672L207.418 164.662C207.628 163.176 208.359 161.813 209.482 160.815C210.605 159.817 212.047 159.249 213.55 159.213H286.105L275.465 235.744L215.308 235.776Z" fill="#F5F5F5"/>
<path d="M268.07 235.776H284.706L293.46 164.662C293.567 163.978 293.522 163.279 293.328 162.615C293.134 161.951 292.797 161.337 292.339 160.817C291.882 160.297 291.315 159.884 290.68 159.607C290.045 159.33 289.356 159.195 288.663 159.213H282.947C281.447 159.259 280.011 159.83 278.89 160.826C277.769 161.822 277.035 163.18 276.816 164.662L268.07 235.776Z" fill="#F0F0F0"/>
<path d="M261.947 235.664L264.961 201.28C265.024 200.534 265.342 199.832 265.862 199.292C266.381 198.752 267.07 198.406 267.814 198.312L269.054 198.152C270.054 198.028 270.98 197.563 271.678 196.836C272.375 196.11 272.801 195.166 272.883 194.164L273.434 187.893C273.489 187.285 273.416 186.673 273.22 186.094C273.024 185.516 272.71 184.985 272.297 184.535C271.884 184.084 271.382 183.725 270.822 183.479C270.262 183.233 269.657 183.106 269.046 183.106H296.85C297.461 183.106 298.066 183.233 298.626 183.479C299.186 183.725 299.688 184.084 300.101 184.535C300.514 184.985 300.828 185.516 301.024 186.094C301.22 186.673 301.293 187.285 301.238 187.893L300.687 194.164C300.605 195.166 300.179 196.11 299.482 196.836C298.784 197.563 297.858 198.028 296.858 198.152L295.618 198.312C294.875 198.408 294.186 198.754 293.667 199.294C293.148 199.834 292.829 200.534 292.764 201.28L289.751 235.664C289.643 236.873 289.086 237.997 288.189 238.816C287.293 239.636 286.122 240.091 284.906 240.092H257.102C258.318 240.091 259.489 239.636 260.386 238.816C261.282 237.997 261.839 236.873 261.947 235.664Z" fill="#E6E6E6"/>
<path d="M185.426 192.704C185.206 190.094 184.011 187.661 182.079 185.888C180.147 184.115 177.618 183.131 174.994 183.13H199.2C201.818 183.141 204.337 184.13 206.26 185.902C208.184 187.674 209.373 190.1 209.593 192.704L211.991 219.956H187.816L185.426 192.704Z" fill="#E6E6E6"/>
<path d="M164.241 183.162H174.986C177.61 183.163 180.139 184.147 182.071 185.92C184.003 187.693 185.198 190.125 185.418 192.736L187.816 219.988H245.471L247.869 192.736C248.087 190.132 249.275 187.704 251.199 185.932C253.123 184.159 255.643 183.171 258.261 183.162H269.014C269.625 183.162 270.23 183.289 270.79 183.535C271.35 183.781 271.852 184.14 272.265 184.591C272.678 185.041 272.992 185.572 273.188 186.15C273.384 186.728 273.457 187.341 273.402 187.949L272.851 194.219C272.769 195.222 272.343 196.166 271.646 196.892C270.948 197.619 270.022 198.083 269.022 198.208L267.782 198.368C267.038 198.462 266.349 198.808 265.83 199.348C265.31 199.888 264.992 200.59 264.929 201.336L261.947 235.664C261.839 236.873 261.282 237.997 260.386 238.816C259.489 239.636 258.318 240.091 257.102 240.092H176.185C174.969 240.091 173.798 239.636 172.901 238.816C172.005 237.997 171.448 236.873 171.34 235.664L168.326 201.28C168.26 200.535 167.941 199.835 167.422 199.295C166.903 198.756 166.215 198.409 165.472 198.312L164.233 198.152C163.233 198.026 162.306 197.562 161.607 196.836C160.909 196.11 160.481 195.166 160.396 194.164L159.852 187.893C159.806 187.29 159.885 186.683 160.085 186.112C160.285 185.54 160.6 185.016 161.012 184.572C161.424 184.128 161.924 183.773 162.479 183.531C163.035 183.288 163.635 183.163 164.241 183.162Z" fill="#F0F0F0"/>
<path d="M36.8134 65.3219C36.8134 65.3219 35.926 59.4901 40.1869 55.7485C44.4478 52.0069 44.0721 49.7891 42.849 49.5019C41.6259 49.2147 40.5147 52.9483 38.644 53.9775C38.644 53.9775 38.5801 48.6483 40.4827 46.6937C42.3853 44.7392 43.3846 39.6732 41.5699 39.5855C39.7552 39.4977 39.5794 42.5851 39.1717 44.779C38.764 46.9729 36.7734 50.0524 36.7734 50.0524C36.7734 50.0524 36.3817 45.2657 35.1745 43.3271C33.9674 41.3885 37.2211 36.881 35.974 34.9264C34.7269 32.9719 32.4645 36.6975 32.6484 40.9018C32.8322 45.1061 35.6462 49.5897 34.9907 53.9775C34.9907 53.9775 33.7516 50.89 32.6404 50.6108C31.5292 50.3316 30.402 48.2973 29.6585 47.5394C28.9151 46.7815 27.9717 49.3982 29.6585 51.8234C31.3453 54.2487 35.6462 60.7506 34.9907 66L36.8134 65.3219Z" fill="#E6E6E6"/>
<path d="M39.3555 62.6653L40.7545 71.401C40.855 72.0353 40.8166 72.6837 40.6419 73.3017C40.4671 73.9197 40.1603 74.4926 39.7424 74.9809C39.3245 75.4692 38.8056 75.8613 38.2212 76.1302C37.6369 76.3992 37.0012 76.5385 36.3577 76.5387H34.8708C34.2273 76.5385 33.5916 76.3992 33.0072 76.1302C32.4229 75.8613 31.904 75.4692 31.4861 74.9809C31.0682 74.4926 30.7613 73.9197 30.5866 73.3017C30.4119 72.6837 30.3735 72.0353 30.474 71.401L31.8889 62.6653H39.3555Z" fill="#E6E6E6"/>
<path d="M123.063 74.8315H127.404V56.2033H123.063V74.8315Z" fill="#EBEBEB"/>
<path d="M102.07 74.8315H106.411V56.2033H102.07V74.8315Z" fill="#EBEBEB"/>
<path d="M75.0691 74.0911L79.3469 74.8269L82.5177 56.4694L78.2399 55.7336L75.0691 74.0911Z" fill="#EBEBEB"/>
<path d="M117.683 74.8235H122.024V58.6525H117.683V74.8235Z" fill="#EBEBEB"/>
<path d="M107.706 74.8235H112.047V58.6525H107.706V74.8235Z" fill="#EBEBEB"/>
<path d="M82.5084 74.8235H86.8492V58.6525H82.5084V74.8235Z" fill="#EBEBEB"/>
<path d="M92.8612 73.8854L97.0986 74.8253L100.614 59.0394L96.3767 58.0996L92.8612 73.8854Z" fill="#EBEBEB"/>
<path d="M113.926 74.8314H116.1V55.2778H113.926V74.8314Z" fill="#EBEBEB"/>
<path d="M88.0963 74.8314H90.2708V55.2778H88.0963V74.8314Z" fill="#EBEBEB"/>
<path d="M72.6195 60.0406H51.4588V74.6161H72.6195V60.0406Z" fill="#EBEBEB"/>
<path d="M145.191 66.008H127.468V76.8897H145.191V66.008Z" fill="#EBEBEB"/>
<path d="M141.05 56.4426H132.185V67.3244H141.05V56.4426Z" fill="#EBEBEB"/>
<path d="M289.151 42.0426H268.07V129.703H289.151V42.0426Z" fill="#E0E0E0"/>
<path d="M208.05 129.942H286.889V42.0506L208.05 42.0506V129.942Z" fill="#E0E0E0"/>
<path d="M205.507 129.942H287.304V42.0506L205.507 42.0506V129.942Z" fill="#F0F0F0"/>
<path d="M209.009 125.897L283.947 125.897V44.8429L209.009 44.8429V125.897Z" fill="white"/>
<path d="M209.001 125.897H210.392V44.8429H209.001V125.897Z" fill="#E0E0E0"/>
<path d="M210.168 103.137V105.323H284.147V103.137H210.168Z" fill="#E0E0E0"/>
<path d="M209.001 103.129L285.114 103.129V99.459L209.001 99.459V103.129Z" fill="#F0F0F0"/>
<path d="M155 276C240.604 276 310 271.957 310 266.969C310 261.981 240.604 257.938 155 257.938C69.3959 257.938 0 261.981 0 266.969C0 271.957 69.3959 276 155 276Z" fill="#F5F5F5"/>
<path d="M212.518 56.8176H69.4938C66.262 56.8176 63.642 59.4321 63.642 62.6573V230.718C63.642 233.943 66.262 236.558 69.4938 236.558H212.518C215.75 236.558 218.37 233.943 218.37 230.718V62.6573C218.37 59.4321 215.75 56.8176 212.518 56.8176Z" fill="#436A02"/>
<path opacity="0.6" d="M212.518 56.8176H69.4938C66.262 56.8176 63.642 59.4321 63.642 62.6573V230.718C63.642 233.943 66.262 236.558 69.4938 236.558H212.518C215.75 236.558 218.37 233.943 218.37 230.718V62.6573C218.37 59.4321 215.75 56.8176 212.518 56.8176Z" fill="white"/>
<path d="M193.308 139.252H88.7119V157.123H193.308V139.252Z" fill="white"/>
<g opacity="0.4">
<path d="M98.0651 149.927V150.397H94.4358V145.276H97.9532V145.738H94.9794V147.565H97.6334V148.02H94.9794V149.927H98.0651Z" fill="#263238"/>
<path d="M98.7926 148.187H100.719V148.634H98.7926V148.187Z" fill="#263238"/>
<path d="M108.242 148.164V150.397H107.722V148.211C107.722 147.414 107.314 146.983 106.619 146.983C106.439 146.974 106.259 147.005 106.092 147.074C105.925 147.142 105.775 147.246 105.652 147.378C105.529 147.51 105.437 147.668 105.382 147.839C105.327 148.011 105.31 148.192 105.332 148.371V150.397H104.804V148.211C104.804 147.414 104.397 146.983 103.693 146.983C103.513 146.974 103.333 147.005 103.166 147.074C102.999 147.142 102.849 147.246 102.726 147.378C102.604 147.51 102.511 147.668 102.456 147.839C102.401 148.011 102.384 148.192 102.406 148.371V150.397H101.878V146.544H102.382V147.246C102.533 147.011 102.743 146.819 102.991 146.69C103.24 146.562 103.517 146.5 103.797 146.512C104.079 146.488 104.362 146.552 104.607 146.695C104.852 146.838 105.046 147.052 105.164 147.31C105.324 147.053 105.55 146.843 105.818 146.703C106.087 146.563 106.388 146.497 106.691 146.512C106.908 146.496 107.126 146.528 107.329 146.607C107.531 146.685 107.714 146.809 107.863 146.967C108.012 147.125 108.123 147.315 108.189 147.522C108.254 147.729 108.272 147.948 108.242 148.164Z" fill="#263238"/>
<path d="M112.575 148.004V150.397H112.071V149.791C111.928 150.007 111.729 150.18 111.496 150.292C111.262 150.405 111.002 150.452 110.744 150.429C109.873 150.429 109.337 149.974 109.337 149.312C109.337 148.65 109.721 148.219 110.824 148.219H112.047V147.988C112.047 147.326 111.679 146.967 110.96 146.967C110.49 146.962 110.034 147.123 109.673 147.422L109.441 147.039C109.893 146.676 110.461 146.489 111.04 146.512C111.244 146.487 111.451 146.509 111.646 146.574C111.84 146.64 112.018 146.748 112.165 146.891C112.312 147.034 112.426 147.209 112.497 147.401C112.567 147.594 112.594 147.8 112.575 148.004ZM112.047 149.241V148.61H110.84C110.096 148.61 109.849 148.897 109.849 149.296C109.849 149.695 110.208 150.022 110.824 150.022C111.085 150.04 111.344 149.973 111.564 149.832C111.784 149.692 111.954 149.484 112.047 149.241Z" fill="#263238"/>
<path d="M113.87 145.331C113.871 145.282 113.882 145.234 113.901 145.188C113.921 145.143 113.95 145.103 113.985 145.069C114.021 145.034 114.063 145.008 114.109 144.99C114.155 144.972 114.204 144.963 114.254 144.964C114.302 144.963 114.35 144.972 114.395 144.989C114.44 145.007 114.481 145.033 114.516 145.066C114.551 145.1 114.579 145.139 114.599 145.184C114.618 145.228 114.629 145.275 114.63 145.323C114.631 145.373 114.622 145.423 114.603 145.469C114.585 145.516 114.557 145.558 114.522 145.594C114.487 145.629 114.446 145.658 114.399 145.677C114.353 145.696 114.304 145.706 114.254 145.706C114.204 145.707 114.154 145.698 114.107 145.68C114.061 145.662 114.018 145.634 113.983 145.599C113.947 145.564 113.918 145.523 113.899 145.477C113.88 145.431 113.87 145.381 113.87 145.331ZM113.99 146.544H114.51V150.397H113.99V146.544Z" fill="#263238"/>
<path d="M115.956 144.964H116.476V150.397H115.956V144.964Z" fill="#263238"/>
</g>
<path d="M193.308 163.664H88.7119V181.535H193.308V163.664Z" fill="white"/>
<g opacity="0.4">
<path d="M98.4489 171.467C98.4489 172.56 97.6494 173.222 96.3544 173.222H94.9794V174.817H94.4358V169.696H96.3544C97.6574 169.712 98.4489 170.374 98.4489 171.467ZM97.9053 171.467C97.9053 170.669 97.3696 170.182 96.3064 170.182H94.9474V172.743H96.3064C97.3696 172.743 97.9053 172.273 97.9053 171.467Z" fill="#263238"/>
<path d="M102.39 172.448V174.841H101.886V174.235C101.743 174.451 101.544 174.624 101.311 174.736C101.077 174.849 100.818 174.896 100.559 174.873C99.688 174.873 99.1523 174.419 99.1523 173.748C99.1523 173.078 99.5361 172.639 100.639 172.639H101.862V172.4C101.862 171.746 101.487 171.387 100.767 171.387C100.3 171.381 99.8461 171.542 99.4881 171.842L99.2483 171.451C99.7038 171.096 100.27 170.913 100.847 170.932C101.054 170.905 101.264 170.926 101.462 170.992C101.66 171.059 101.84 171.169 101.988 171.315C102.137 171.461 102.25 171.639 102.32 171.835C102.39 172.032 102.414 172.241 102.39 172.448ZM101.87 173.677V173.046H100.639C99.8958 173.046 99.656 173.342 99.656 173.74C99.656 174.139 100.008 174.458 100.631 174.458C100.895 174.478 101.157 174.412 101.38 174.272C101.603 174.131 101.775 173.922 101.87 173.677Z" fill="#263238"/>
<path d="M103.269 174.395L103.501 173.988C103.904 174.269 104.384 174.419 104.876 174.419C105.604 174.419 105.907 174.171 105.907 173.788C105.907 172.783 103.405 173.573 103.405 172.057C103.405 171.427 103.949 170.956 104.932 170.956C105.412 170.952 105.884 171.076 106.299 171.315L106.067 171.73C105.731 171.508 105.335 171.394 104.932 171.403C104.237 171.403 103.925 171.674 103.925 172.041C103.925 173.078 106.427 172.296 106.427 173.772C106.427 174.442 105.844 174.873 104.828 174.873C104.27 174.888 103.723 174.72 103.269 174.395Z" fill="#263238"/>
<path d="M106.851 174.395L107.091 173.988C107.489 174.272 107.968 174.423 108.458 174.419C109.193 174.419 109.489 174.171 109.489 173.788C109.489 172.783 106.995 173.573 106.995 172.057C106.995 171.427 107.538 170.956 108.514 170.956C108.993 170.95 109.466 171.074 109.881 171.315L109.657 171.73C109.317 171.509 108.919 171.395 108.514 171.403C107.818 171.403 107.514 171.674 107.514 172.041C107.514 173.078 110.016 172.296 110.016 173.772C110.016 174.442 109.425 174.873 108.418 174.873C107.857 174.887 107.308 174.719 106.851 174.395Z" fill="#263238"/>
<path d="M116.556 170.988L115.101 174.833H114.613L113.43 171.682L112.215 174.833H111.727L110.232 170.988H110.728L111.943 174.259L113.182 170.988H113.63L114.861 174.259L116.084 170.988H116.556Z" fill="#263238"/>
<path d="M116.844 172.911C116.844 172.523 116.959 172.143 117.175 171.82C117.391 171.498 117.698 171.246 118.058 171.098C118.417 170.949 118.812 170.91 119.194 170.986C119.575 171.062 119.926 171.249 120.201 171.523C120.476 171.797 120.663 172.147 120.739 172.528C120.815 172.909 120.776 173.303 120.627 173.662C120.478 174.02 120.226 174.327 119.903 174.543C119.579 174.758 119.199 174.873 118.81 174.873C118.549 174.882 118.29 174.837 118.047 174.742C117.805 174.647 117.584 174.502 117.4 174.318C117.215 174.134 117.071 173.914 116.975 173.672C116.879 173.43 116.835 173.171 116.844 172.911ZM120.241 172.911C120.229 172.629 120.133 172.358 119.968 172.13C119.802 171.902 119.572 171.728 119.308 171.63C119.044 171.531 118.756 171.512 118.481 171.575C118.206 171.638 117.956 171.78 117.761 171.984C117.567 172.188 117.437 172.445 117.387 172.722C117.337 172.999 117.371 173.285 117.482 173.543C117.594 173.802 117.78 174.022 118.016 174.176C118.252 174.33 118.528 174.412 118.81 174.411C119.005 174.414 119.199 174.378 119.379 174.303C119.559 174.228 119.722 174.116 119.856 173.975C119.991 173.834 120.095 173.666 120.161 173.483C120.227 173.3 120.254 173.105 120.241 172.911Z" fill="#263238"/>
<path d="M123.775 170.956V171.459H123.647C123.464 171.45 123.281 171.482 123.112 171.551C122.943 171.621 122.791 171.727 122.667 171.862C122.544 171.996 122.451 172.157 122.397 172.331C122.342 172.506 122.327 172.69 122.352 172.871V174.833H121.832V170.988H122.328V171.738C122.462 171.478 122.672 171.264 122.931 171.125C123.189 170.985 123.483 170.927 123.775 170.956Z" fill="#263238"/>
<path d="M128.195 169.448V174.873H127.7V174.115C127.545 174.368 127.325 174.574 127.064 174.714C126.803 174.854 126.509 174.923 126.213 174.913C125.714 174.881 125.246 174.661 124.904 174.297C124.562 173.934 124.372 173.453 124.372 172.955C124.372 172.456 124.562 171.976 124.904 171.612C125.246 171.248 125.714 171.028 126.213 170.996C126.505 170.99 126.794 171.06 127.051 171.2C127.308 171.34 127.523 171.545 127.676 171.794V169.448H128.195ZM127.684 172.951C127.671 172.669 127.576 172.398 127.41 172.17C127.244 171.942 127.015 171.768 126.751 171.67C126.486 171.571 126.199 171.552 125.924 171.615C125.649 171.678 125.399 171.82 125.204 172.024C125.01 172.228 124.879 172.485 124.83 172.762C124.78 173.039 124.813 173.325 124.925 173.583C125.037 173.842 125.222 174.062 125.458 174.216C125.694 174.37 125.971 174.452 126.253 174.45C126.452 174.455 126.649 174.417 126.832 174.34C127.015 174.262 127.18 174.147 127.315 174.001C127.45 173.856 127.553 173.684 127.617 173.496C127.68 173.308 127.703 173.108 127.684 172.911V172.951Z" fill="#263238"/>
</g>
<path opacity="0.2" d="M193.308 199.764H88.7119V217.634H193.308V199.764Z" fill="black"/>
<g opacity="0.5">
<path d="M114.15 191.555H112.439L112.071 192.353H111.735L113.134 189.297H113.454L114.853 192.353H114.517L114.15 191.555ZM114.03 191.292L113.294 189.648L112.559 191.292H114.03Z" fill="black"/>
<path d="M115.301 189.13H115.613V192.369H115.301V189.13Z" fill="black"/>
<path d="M117.644 190.055V190.358H117.564C117.452 190.349 117.34 190.364 117.235 190.404C117.13 190.444 117.036 190.507 116.959 190.588C116.882 190.67 116.825 190.767 116.791 190.874C116.757 190.98 116.748 191.093 116.764 191.204V192.377H116.452V190.079H116.756V190.526C116.836 190.365 116.965 190.233 117.124 190.148C117.283 190.064 117.465 190.031 117.644 190.055Z" fill="black"/>
<path d="M120.185 191.316H118.227C118.233 191.427 118.261 191.537 118.31 191.638C118.359 191.738 118.427 191.829 118.511 191.903C118.595 191.977 118.693 192.034 118.799 192.07C118.906 192.106 119.018 192.121 119.13 192.113C119.263 192.118 119.395 192.094 119.518 192.043C119.641 191.992 119.751 191.915 119.841 191.818L120.009 192.018C119.844 192.191 119.631 192.311 119.398 192.364C119.164 192.417 118.92 192.399 118.696 192.314C118.472 192.229 118.279 192.08 118.14 191.885C118.001 191.69 117.922 191.459 117.915 191.22C117.907 191.068 117.931 190.917 117.984 190.774C118.038 190.632 118.12 190.503 118.225 190.393C118.331 190.284 118.458 190.198 118.598 190.14C118.739 190.081 118.89 190.053 119.042 190.055C119.194 190.051 119.345 190.079 119.486 190.137C119.627 190.195 119.754 190.282 119.859 190.391C119.964 190.501 120.045 190.631 120.097 190.774C120.15 190.916 120.171 191.068 120.161 191.22C120.161 191.22 120.185 191.284 120.185 191.316ZM118.259 191.084H119.857C119.857 190.873 119.773 190.67 119.623 190.52C119.473 190.37 119.27 190.286 119.058 190.286C118.846 190.286 118.643 190.37 118.493 190.52C118.343 190.67 118.259 190.873 118.259 191.084Z" fill="black"/>
<path d="M122.496 190.988V192.408H122.224V192.049C122.139 192.181 122.019 192.286 121.878 192.354C121.737 192.421 121.58 192.448 121.424 192.432C120.905 192.432 120.625 192.161 120.625 191.762C120.625 191.363 120.849 191.108 121.512 191.108H122.224V190.972C122.224 190.582 122 190.366 121.568 190.366C121.277 190.355 120.993 190.452 120.769 190.637L120.633 190.406C120.898 190.195 121.229 190.085 121.568 190.095C121.692 190.074 121.819 190.082 121.939 190.119C122.059 190.156 122.168 190.22 122.259 190.307C122.349 190.394 122.417 190.501 122.459 190.62C122.5 190.738 122.512 190.864 122.496 190.988ZM122.192 191.722V191.339H121.464C121.017 191.339 120.873 191.515 120.873 191.754C120.873 191.994 121.089 192.185 121.456 192.185C121.622 192.198 121.787 192.155 121.926 192.064C122.065 191.973 122.169 191.839 122.224 191.682L122.192 191.722Z" fill="black"/>
<path d="M125.421 189.13V192.369H125.126V191.914C125.035 192.066 124.904 192.191 124.748 192.275C124.592 192.36 124.416 192.4 124.238 192.393C123.944 192.368 123.67 192.235 123.471 192.018C123.271 191.802 123.16 191.518 123.16 191.224C123.16 190.929 123.271 190.646 123.471 190.429C123.67 190.213 123.944 190.079 124.238 190.055C124.411 190.05 124.583 190.09 124.737 190.169C124.891 190.249 125.022 190.366 125.118 190.51V189.13H125.421ZM125.118 191.22C125.11 191.053 125.053 190.892 124.954 190.757C124.856 190.622 124.72 190.519 124.563 190.46C124.406 190.402 124.235 190.39 124.072 190.428C123.909 190.465 123.76 190.549 123.645 190.67C123.529 190.791 123.451 190.943 123.422 191.107C123.392 191.272 123.411 191.441 123.476 191.595C123.542 191.749 123.652 191.88 123.791 191.972C123.931 192.064 124.095 192.113 124.262 192.113C124.381 192.12 124.501 192.102 124.612 192.06C124.723 192.017 124.824 191.951 124.908 191.867C124.992 191.782 125.057 191.681 125.099 191.569C125.14 191.458 125.158 191.339 125.15 191.22H125.118Z" fill="black"/>
<path d="M128.259 190.071L127.108 192.648C126.916 193.095 126.668 193.238 126.309 193.238C126.102 193.244 125.902 193.169 125.749 193.031L125.893 192.799C126.005 192.912 126.158 192.975 126.317 192.975C126.525 192.975 126.66 192.879 126.796 192.584L126.892 192.369L125.861 190.071H126.221L127.092 192.026L127.956 190.071H128.259Z" fill="black"/>
<path d="M131.585 190.988V192.408H131.289V192.049C131.204 192.181 131.085 192.286 130.944 192.354C130.803 192.421 130.645 192.448 130.49 192.432C129.97 192.432 129.69 192.161 129.69 191.762C129.69 191.363 129.914 191.108 130.578 191.108H131.305V190.972C131.305 190.582 131.089 190.366 130.658 190.366C130.367 190.355 130.082 190.452 129.858 190.637L129.714 190.406C129.982 190.195 130.316 190.085 130.658 190.095C130.781 190.074 130.908 190.082 131.028 190.119C131.148 190.156 131.258 190.22 131.348 190.307C131.438 190.394 131.507 190.501 131.548 190.62C131.589 190.738 131.602 190.864 131.585 190.988ZM131.273 191.722V191.339H130.554C130.106 191.339 129.962 191.515 129.962 191.754C129.962 191.994 130.178 192.185 130.546 192.185C130.705 192.191 130.862 192.146 130.994 192.055C131.125 191.964 131.223 191.834 131.273 191.682V191.722Z" fill="black"/>
<path d="M137.413 191.036V192.369H137.109V191.068C137.109 190.582 136.861 190.334 136.445 190.334C136.338 190.326 136.231 190.341 136.13 190.378C136.029 190.415 135.937 190.473 135.861 190.549C135.786 190.625 135.727 190.716 135.69 190.817C135.652 190.918 135.638 191.025 135.646 191.132V192.337H135.342V191.068C135.342 190.582 135.094 190.334 134.671 190.334C134.564 190.326 134.456 190.341 134.355 190.378C134.254 190.415 134.163 190.473 134.087 190.549C134.011 190.625 133.952 190.716 133.915 190.817C133.878 190.918 133.863 191.025 133.871 191.132V192.337H133.56V190.039H133.855V190.462C133.943 190.319 134.069 190.203 134.218 190.125C134.367 190.048 134.535 190.013 134.703 190.023C134.87 190.01 135.038 190.05 135.181 190.137C135.325 190.225 135.437 190.355 135.502 190.51C135.595 190.353 135.729 190.225 135.89 190.14C136.05 190.054 136.232 190.014 136.413 190.023C136.552 189.998 136.694 190.008 136.827 190.05C136.961 190.093 137.082 190.167 137.181 190.267C137.279 190.367 137.352 190.489 137.392 190.623C137.433 190.757 137.44 190.899 137.413 191.036Z" fill="black"/>
<path d="M140.243 191.315H138.316C138.332 191.541 138.437 191.752 138.608 191.901C138.778 192.05 139.001 192.126 139.227 192.113C139.359 192.118 139.49 192.094 139.612 192.043C139.733 191.992 139.842 191.916 139.931 191.818L140.107 192.018C139.994 192.14 139.857 192.237 139.704 192.301C139.551 192.366 139.386 192.397 139.219 192.393C139.061 192.403 138.902 192.38 138.753 192.325C138.604 192.27 138.469 192.184 138.355 192.074C138.241 191.963 138.152 191.83 138.093 191.683C138.034 191.536 138.006 191.378 138.012 191.22C138.012 190.924 138.13 190.639 138.34 190.43C138.55 190.221 138.835 190.103 139.131 190.103C139.428 190.103 139.713 190.221 139.923 190.43C140.133 190.639 140.251 190.924 140.251 191.22C140.251 191.22 140.243 191.284 140.243 191.315ZM138.316 191.084H139.955C139.955 190.867 139.869 190.659 139.715 190.506C139.561 190.353 139.353 190.266 139.135 190.266C138.918 190.266 138.71 190.353 138.556 190.506C138.402 190.659 138.316 190.867 138.316 191.084Z" fill="black"/>
<path d="M144.687 191.036V192.369H144.376V191.068C144.376 190.582 144.136 190.334 143.72 190.334C143.613 190.324 143.504 190.338 143.403 190.375C143.302 190.412 143.209 190.47 143.133 190.546C143.057 190.622 142.998 190.714 142.962 190.815C142.925 190.917 142.911 191.025 142.921 191.132V192.337H142.609V191.068C142.609 190.582 142.369 190.334 141.945 190.334C141.838 190.324 141.73 190.338 141.628 190.375C141.527 190.412 141.435 190.47 141.358 190.546C141.282 190.622 141.224 190.714 141.187 190.815C141.15 190.917 141.136 191.025 141.146 191.132V192.337H140.834V190.039H141.13V190.462C141.217 190.318 141.343 190.201 141.492 190.124C141.642 190.047 141.809 190.012 141.977 190.023C142.145 190.01 142.313 190.05 142.456 190.137C142.6 190.225 142.712 190.355 142.777 190.51C142.87 190.353 143.004 190.225 143.165 190.14C143.325 190.054 143.506 190.014 143.688 190.023C143.826 189.998 143.968 190.008 144.102 190.05C144.236 190.093 144.357 190.167 144.455 190.267C144.554 190.367 144.626 190.489 144.667 190.623C144.707 190.757 144.714 190.899 144.687 191.036Z" fill="black"/>
<path d="M147.869 191.22C147.877 191.373 147.853 191.526 147.799 191.67C147.744 191.814 147.661 191.945 147.554 192.055C147.446 192.165 147.318 192.252 147.175 192.31C147.033 192.368 146.88 192.396 146.726 192.393C146.549 192.4 146.372 192.36 146.216 192.275C146.06 192.191 145.929 192.066 145.839 191.914V192.369H145.535V189.13H145.847V190.51C145.942 190.365 146.073 190.248 146.227 190.168C146.381 190.089 146.553 190.05 146.726 190.055C146.879 190.05 147.032 190.078 147.175 190.135C147.317 190.192 147.446 190.278 147.553 190.387C147.661 190.497 147.744 190.627 147.799 190.771C147.853 190.914 147.877 191.067 147.869 191.22ZM147.557 191.22C147.55 191.053 147.493 190.892 147.394 190.757C147.296 190.622 147.159 190.519 147.003 190.46C146.846 190.402 146.675 190.39 146.512 190.428C146.349 190.465 146.2 190.549 146.084 190.67C145.969 190.791 145.891 190.943 145.861 191.107C145.831 191.272 145.851 191.441 145.916 191.595C145.982 191.749 146.092 191.88 146.231 191.972C146.371 192.064 146.535 192.113 146.702 192.113C146.818 192.116 146.934 192.094 147.042 192.049C147.149 192.005 147.246 191.939 147.327 191.854C147.407 191.77 147.469 191.671 147.509 191.561C147.549 191.452 147.565 191.336 147.557 191.22Z" fill="black"/>
<path d="M150.515 191.316H148.605C148.611 191.427 148.639 191.537 148.688 191.638C148.737 191.738 148.805 191.829 148.889 191.903C148.973 191.977 149.071 192.034 149.177 192.07C149.284 192.106 149.396 192.121 149.508 192.113C149.641 192.113 149.772 192.084 149.892 192.027C150.013 191.971 150.119 191.888 150.204 191.786L150.379 191.986C150.214 192.159 150.001 192.279 149.768 192.332C149.534 192.385 149.29 192.368 149.066 192.282C148.842 192.197 148.649 192.048 148.51 191.853C148.371 191.658 148.292 191.427 148.285 191.188C148.277 191.036 148.301 190.885 148.354 190.743C148.408 190.6 148.49 190.471 148.595 190.362C148.701 190.252 148.828 190.166 148.969 190.108C149.109 190.05 149.26 190.021 149.412 190.023C149.564 190.019 149.715 190.047 149.855 190.105C149.995 190.163 150.122 190.25 150.226 190.36C150.331 190.469 150.412 190.6 150.463 190.742C150.514 190.885 150.534 191.037 150.523 191.188L150.515 191.316ZM148.589 191.084H150.188C150.188 190.873 150.103 190.67 149.953 190.52C149.803 190.37 149.6 190.286 149.388 190.286C149.176 190.286 148.973 190.37 148.823 190.52C148.673 190.67 148.589 190.873 148.589 191.084Z" fill="black"/>
<path d="M152.315 190.055V190.358H152.243C152.131 190.349 152.019 190.364 151.914 190.404C151.809 190.444 151.715 190.507 151.638 190.588C151.561 190.67 151.503 190.767 151.47 190.874C151.436 190.98 151.427 191.093 151.443 191.204V192.377H151.131V190.079H151.427V190.526C151.508 190.365 151.637 190.234 151.796 190.15C151.955 190.066 152.136 190.032 152.315 190.055Z" fill="black"/>
<path d="M154.328 190.095C154.328 189.776 154.073 189.56 153.625 189.56C153.468 189.551 153.31 189.578 153.165 189.639C153.019 189.7 152.89 189.793 152.786 189.911L152.554 189.736C152.69 189.582 152.859 189.462 153.049 189.383C153.239 189.304 153.444 189.269 153.649 189.281C154.265 189.281 154.656 189.576 154.656 190.079C154.656 190.821 153.857 190.877 153.857 191.483H153.529C153.529 190.733 154.328 190.661 154.328 190.095ZM153.465 192.161C153.475 192.108 153.503 192.06 153.545 192.026C153.587 191.991 153.639 191.973 153.693 191.973C153.747 191.973 153.799 191.991 153.841 192.026C153.883 192.06 153.911 192.108 153.921 192.161C153.927 192.195 153.926 192.229 153.917 192.262C153.909 192.295 153.893 192.325 153.871 192.352C153.85 192.378 153.822 192.399 153.792 192.413C153.761 192.428 153.727 192.435 153.693 192.435C153.659 192.435 153.625 192.428 153.594 192.413C153.564 192.399 153.536 192.378 153.515 192.352C153.493 192.325 153.477 192.295 153.469 192.262C153.46 192.229 153.459 192.195 153.465 192.161Z" fill="black"/>
<path d="M156.495 189.313H157.206V191.786H158.741V192.361H156.495V189.313Z" fill="black"/>
<path d="M158.901 191.196C158.885 190.937 158.947 190.68 159.08 190.457C159.212 190.235 159.408 190.057 159.643 189.946C159.878 189.836 160.14 189.799 160.396 189.84C160.653 189.88 160.891 189.996 161.08 190.174C161.269 190.351 161.401 190.58 161.457 190.833C161.514 191.086 161.494 191.35 161.398 191.59C161.303 191.831 161.138 192.038 160.923 192.184C160.709 192.33 160.456 192.408 160.196 192.408C160.03 192.419 159.863 192.396 159.707 192.34C159.55 192.284 159.406 192.196 159.285 192.083C159.163 191.969 159.067 191.832 159.001 191.679C158.935 191.527 158.901 191.362 158.901 191.196ZM160.796 191.196C160.787 191.08 160.744 190.969 160.672 190.877C160.601 190.786 160.504 190.716 160.394 190.678C160.284 190.64 160.166 190.635 160.053 190.663C159.94 190.691 159.837 190.752 159.758 190.837C159.679 190.922 159.627 191.029 159.607 191.143C159.588 191.258 159.602 191.376 159.648 191.482C159.695 191.589 159.771 191.68 159.869 191.744C159.966 191.807 160.08 191.842 160.196 191.842C160.28 191.844 160.362 191.827 160.439 191.795C160.516 191.762 160.584 191.714 160.641 191.653C160.698 191.592 160.741 191.52 160.767 191.441C160.794 191.362 160.804 191.279 160.796 191.196Z" fill="black"/>
<path d="M164.377 190.015V191.978C164.399 192.154 164.38 192.333 164.321 192.501C164.261 192.668 164.164 192.82 164.036 192.944C163.908 193.067 163.753 193.16 163.584 193.214C163.414 193.268 163.234 193.281 163.058 193.254C162.647 193.27 162.241 193.155 161.899 192.927L162.171 192.44C162.404 192.607 162.683 192.699 162.97 192.704C163.45 192.704 163.666 192.488 163.666 192.065V191.962C163.57 192.061 163.454 192.139 163.326 192.19C163.198 192.241 163.06 192.263 162.922 192.257C162.765 192.27 162.606 192.25 162.456 192.199C162.307 192.148 162.169 192.067 162.053 191.96C161.936 191.853 161.844 191.723 161.78 191.579C161.716 191.434 161.684 191.278 161.684 191.12C161.684 190.962 161.716 190.806 161.78 190.662C161.844 190.517 161.936 190.387 162.053 190.28C162.169 190.174 162.307 190.092 162.456 190.041C162.606 189.99 162.765 189.97 162.922 189.983C163.073 189.971 163.224 189.995 163.363 190.054C163.502 190.112 163.625 190.203 163.722 190.318V190.015H164.377ZM163.706 191.124C163.708 191.044 163.694 190.965 163.663 190.891C163.633 190.817 163.587 190.75 163.529 190.695C163.471 190.64 163.402 190.598 163.326 190.571C163.25 190.545 163.17 190.535 163.09 190.542C163.008 190.532 162.925 190.54 162.847 190.565C162.768 190.589 162.696 190.63 162.634 190.685C162.573 190.739 162.523 190.807 162.49 190.882C162.456 190.957 162.438 191.038 162.438 191.12C162.438 191.202 162.456 191.284 162.49 191.359C162.523 191.434 162.573 191.501 162.634 191.555C162.696 191.61 162.768 191.651 162.847 191.676C162.925 191.7 163.008 191.708 163.09 191.698C163.169 191.705 163.249 191.695 163.324 191.669C163.399 191.643 163.468 191.602 163.526 191.548C163.584 191.494 163.63 191.428 163.661 191.355C163.692 191.282 163.707 191.203 163.706 191.124Z" fill="black"/>
<path d="M166.192 189.313C166.193 189.26 166.205 189.207 166.227 189.158C166.249 189.11 166.281 189.066 166.321 189.03C166.361 188.994 166.407 188.967 166.458 188.95C166.509 188.932 166.563 188.926 166.616 188.93C166.668 188.925 166.721 188.93 166.771 188.946C166.822 188.961 166.868 188.987 166.908 189.022C166.948 189.056 166.98 189.098 167.003 189.146C167.025 189.193 167.038 189.245 167.04 189.297C167.04 189.409 166.995 189.517 166.916 189.596C166.836 189.675 166.728 189.72 166.616 189.72C166.504 189.72 166.396 189.675 166.316 189.596C166.237 189.517 166.192 189.409 166.192 189.297V189.313ZM166.272 190.015H166.952V192.408H166.272V190.015Z" fill="black"/>
<path d="M169.981 190.988V192.337H169.302V191.1C169.302 190.717 169.126 190.542 168.822 190.542C168.518 190.542 168.254 190.741 168.254 191.172V192.337H167.575V189.943H168.23V190.223C168.334 190.116 168.458 190.034 168.596 189.98C168.734 189.926 168.882 189.903 169.03 189.911C169.168 189.904 169.306 189.929 169.433 189.982C169.561 190.036 169.674 190.118 169.766 190.221C169.857 190.325 169.924 190.447 169.961 190.58C169.999 190.713 170.005 190.853 169.981 190.988Z" fill="black"/>
</g>
<path d="M193.308 198.671H88.7119V216.541H193.308V198.671Z" fill="#436A02"/>
<path d="M127.5 210.382L126.221 208.54H125.837H124.318V210.398H123.439V204.279H125.837C127.436 204.279 128.387 205.077 128.387 206.417C128.407 206.842 128.287 207.261 128.044 207.61C127.801 207.959 127.45 208.219 127.044 208.348L128.499 210.398L127.5 210.382ZM127.5 206.394C127.5 205.516 126.916 205.021 125.789 205.021H124.302V207.774H125.789C126.892 207.782 127.476 207.271 127.476 206.402L127.5 206.394Z" fill="white"/>
<path d="M133.831 208.348H130.066C130.125 208.743 130.33 209.101 130.641 209.352C130.952 209.603 131.346 209.729 131.745 209.704C131.996 209.713 132.246 209.668 132.478 209.572C132.709 209.475 132.918 209.33 133.088 209.146L133.552 209.688C133.209 210.035 132.774 210.276 132.299 210.382C131.823 210.488 131.326 210.454 130.869 210.286C130.412 210.118 130.013 209.821 129.72 209.432C129.427 209.043 129.253 208.578 129.219 208.093C129.202 207.78 129.25 207.466 129.361 207.173C129.472 206.879 129.642 206.611 129.861 206.387C130.08 206.162 130.344 205.985 130.635 205.866C130.926 205.748 131.239 205.691 131.553 205.7C131.866 205.691 132.176 205.748 132.466 205.866C132.755 205.985 133.016 206.163 133.232 206.388C133.448 206.614 133.615 206.882 133.721 207.176C133.827 207.469 133.87 207.782 133.847 208.093C133.847 208.165 133.839 208.268 133.831 208.348ZM130.066 207.742H133.04C133.002 207.375 132.829 207.035 132.554 206.788C132.279 206.541 131.923 206.404 131.553 206.404C131.183 206.404 130.827 206.541 130.552 206.788C130.277 207.035 130.104 207.375 130.066 207.742Z" fill="white"/>
<path d="M139.459 205.755V209.744C139.459 211.38 138.62 212.138 137.061 212.138C136.266 212.172 135.483 211.929 134.847 211.451L135.246 210.805C135.758 211.202 136.389 211.413 137.037 211.404C138.132 211.404 138.636 210.901 138.636 209.848V209.481C138.429 209.718 138.171 209.905 137.882 210.03C137.593 210.154 137.28 210.212 136.965 210.199C136.369 210.199 135.798 209.963 135.377 209.542C134.955 209.122 134.719 208.552 134.719 207.957C134.719 207.363 134.955 206.792 135.377 206.372C135.798 205.952 136.369 205.715 136.965 205.715C137.294 205.705 137.621 205.772 137.919 205.911C138.218 206.049 138.48 206.256 138.684 206.513V205.795L139.459 205.755ZM138.66 207.949C138.677 207.631 138.599 207.314 138.434 207.04C138.27 206.767 138.026 206.548 137.736 206.414C137.446 206.28 137.122 206.235 136.806 206.287C136.491 206.338 136.198 206.483 135.965 206.702C135.733 206.921 135.572 207.205 135.502 207.517C135.433 207.828 135.459 208.153 135.577 208.45C135.695 208.747 135.9 209.001 136.164 209.181C136.429 209.36 136.741 209.457 137.061 209.457C137.266 209.469 137.47 209.439 137.663 209.368C137.855 209.298 138.031 209.188 138.179 209.047C138.326 208.905 138.443 208.734 138.522 208.546C138.601 208.357 138.64 208.154 138.636 207.949H138.66Z" fill="white"/>
<path d="M140.914 204.319C140.915 204.246 140.931 204.174 140.96 204.106C140.989 204.039 141.031 203.978 141.084 203.927C141.137 203.876 141.199 203.835 141.267 203.808C141.336 203.781 141.409 203.768 141.482 203.769C141.56 203.76 141.638 203.767 141.713 203.79C141.787 203.813 141.856 203.852 141.915 203.903C141.973 203.955 142.02 204.018 142.052 204.089C142.084 204.161 142.101 204.237 142.101 204.315C142.101 204.393 142.084 204.47 142.052 204.541C142.02 204.612 141.973 204.676 141.915 204.727C141.856 204.779 141.787 204.818 141.713 204.841C141.638 204.864 141.56 204.871 141.482 204.862C141.409 204.864 141.336 204.852 141.268 204.825C141.2 204.799 141.137 204.76 141.084 204.709C141.031 204.659 140.989 204.598 140.96 204.531C140.931 204.464 140.915 204.392 140.914 204.319ZM141.066 205.755H141.906V210.382H141.066V205.755Z" fill="white"/>
<path d="M142.921 209.896L143.272 209.234C143.749 209.542 144.303 209.708 144.871 209.712C145.671 209.712 145.975 209.473 145.975 209.082C145.975 208.045 143.041 208.946 143.041 207.096C143.041 206.298 143.784 205.708 144.975 205.708C145.565 205.698 146.147 205.844 146.662 206.13L146.302 206.792C145.903 206.542 145.439 206.414 144.967 206.426C144.232 206.426 143.872 206.697 143.872 207.064C143.872 208.157 146.814 207.263 146.814 209.066C146.814 209.864 146.014 210.438 144.807 210.438C144.138 210.448 143.482 210.259 142.921 209.896Z" fill="white"/>
<path d="M150.507 210.135C150.216 210.357 149.858 210.472 149.492 210.462C149.295 210.485 149.095 210.463 148.907 210.398C148.72 210.333 148.549 210.227 148.408 210.088C148.267 209.949 148.159 209.78 148.092 209.593C148.025 209.406 148.001 209.207 148.021 209.01V206.465H147.222V205.779H148.021V204.766H148.82V205.779H150.203V206.465H148.868V208.978C148.85 209.081 148.855 209.187 148.883 209.287C148.912 209.387 148.964 209.48 149.034 209.557C149.105 209.634 149.192 209.694 149.289 209.732C149.387 209.77 149.492 209.785 149.596 209.776C149.832 209.778 150.063 209.703 150.251 209.561L150.507 210.135Z" fill="white"/>
<path d="M155.544 208.348H151.802C151.862 208.744 152.068 209.103 152.38 209.355C152.693 209.606 153.089 209.731 153.489 209.704C153.739 209.714 153.988 209.669 154.218 209.572C154.449 209.476 154.656 209.33 154.824 209.146L155.288 209.688C154.947 210.036 154.512 210.277 154.037 210.384C153.561 210.49 153.065 210.457 152.607 210.289C152.15 210.12 151.752 209.823 151.46 209.433C151.168 209.044 150.996 208.578 150.963 208.093C150.946 207.78 150.995 207.466 151.105 207.173C151.216 206.879 151.386 206.611 151.605 206.387C151.825 206.162 152.088 205.985 152.379 205.866C152.67 205.748 152.983 205.691 153.297 205.699C153.609 205.692 153.92 205.75 154.208 205.869C154.497 205.988 154.758 206.166 154.974 206.391C155.189 206.616 155.356 206.884 155.462 207.177C155.569 207.47 155.613 207.782 155.592 208.093C155.583 208.179 155.567 208.265 155.544 208.348ZM151.802 207.742H154.784C154.738 207.38 154.561 207.047 154.287 206.806C154.012 206.564 153.659 206.431 153.293 206.431C152.927 206.431 152.574 206.564 152.3 206.806C152.025 207.047 151.848 207.38 151.802 207.742Z" fill="white"/>
<path d="M159.229 205.708V206.505H159.037C158.829 206.491 158.621 206.523 158.427 206.6C158.234 206.677 158.06 206.797 157.919 206.95C157.779 207.104 157.675 207.287 157.615 207.486C157.555 207.685 157.541 207.896 157.574 208.101V210.406H156.735V205.779H157.534V206.577C157.703 206.285 157.953 206.048 158.253 205.893C158.554 205.739 158.893 205.675 159.229 205.708Z" fill="white"/>
<g opacity="0.6">
<path d="M122.695 76.5946L123.055 75.8447C123.675 76.3636 124.46 76.6463 125.269 76.6425C126.429 76.6425 126.924 76.1957 126.924 75.6133C126.924 74.0178 122.863 75.007 122.863 72.5259C122.863 71.4888 123.663 70.6112 125.429 70.6112C126.19 70.5989 126.939 70.8037 127.588 71.2016L127.268 71.9994C126.719 71.6486 126.081 71.4605 125.429 71.4569C124.286 71.4569 123.831 71.9356 123.831 72.5179C123.831 74.1135 127.9 73.1243 127.9 75.5894C127.9 76.6106 127.1 77.4881 125.301 77.4881C124.354 77.508 123.43 77.1913 122.695 76.5946Z" fill="#263238"/>
<path d="M128.971 70.7149C128.972 70.6346 128.989 70.5553 129.021 70.4816C129.053 70.4079 129.099 70.3413 129.157 70.2856C129.215 70.23 129.284 70.1863 129.359 70.1573C129.434 70.1283 129.514 70.1145 129.595 70.1166C129.674 70.1134 129.754 70.126 129.828 70.1536C129.903 70.1812 129.971 70.2234 130.029 70.2776C130.087 70.3318 130.134 70.3969 130.166 70.4693C130.199 70.5416 130.217 70.6197 130.219 70.699C130.219 70.864 130.153 71.0223 130.036 71.139C129.919 71.2557 129.76 71.3212 129.595 71.3212C129.429 71.3212 129.271 71.2557 129.154 71.139C129.037 71.0223 128.971 70.864 128.971 70.699V70.7149ZM129.131 72.3105H130.059V77.3844H129.131V72.3105Z" fill="#263238"/>
<path d="M136.669 72.2865V76.6663C136.669 78.4613 135.758 79.2751 134.039 79.2751C133.177 79.3024 132.331 79.035 131.641 78.5172L132.081 77.8072C132.637 78.2467 133.329 78.4806 134.039 78.4693C135.238 78.4693 135.782 77.9109 135.782 76.7621V76.3632C135.556 76.6239 135.274 76.8309 134.957 76.9689C134.64 77.107 134.297 77.1726 133.951 77.161C133.617 77.18 133.282 77.1307 132.967 77.016C132.652 76.9013 132.364 76.7237 132.12 76.4941C131.877 76.2644 131.682 75.9875 131.55 75.6803C131.417 75.3732 131.349 75.0422 131.349 74.7078C131.349 74.3733 131.417 74.0424 131.55 73.7352C131.682 73.4281 131.877 73.1512 132.12 72.9215C132.364 72.6918 132.652 72.5142 132.967 72.3995C133.282 72.2849 133.617 72.2355 133.951 72.2546C134.305 72.2363 134.657 72.2986 134.983 72.4368C135.308 72.5751 135.598 72.7856 135.83 73.0524V72.2546L136.669 72.2865ZM135.774 74.6799C135.791 74.3311 135.704 73.9851 135.523 73.6865C135.341 73.3878 135.074 73.1503 134.756 73.0045C134.438 72.8587 134.084 72.8114 133.739 72.8685C133.394 72.9257 133.073 73.0848 132.82 73.3253C132.566 73.5658 132.39 73.8766 132.315 74.2177C132.24 74.5588 132.269 74.9144 132.399 75.2388C132.529 75.5632 132.753 75.8414 133.042 76.0376C133.332 76.2337 133.673 76.3388 134.023 76.3392C134.252 76.3593 134.482 76.3314 134.7 76.2573C134.917 76.1832 135.116 76.0646 135.285 75.9091C135.453 75.7536 135.588 75.5646 135.679 75.3543C135.77 75.144 135.816 74.917 135.814 74.6878L135.774 74.6799Z" fill="#263238"/>
<path d="M143.256 74.4406V77.3604H142.329V74.5124C142.329 73.5151 141.834 73.0285 140.962 73.0285C140.741 73.014 140.519 73.0484 140.312 73.1292C140.106 73.2099 139.92 73.3351 139.767 73.4958C139.614 73.6565 139.499 73.8487 139.429 74.0589C139.36 74.2691 139.337 74.492 139.363 74.7118V77.3285H138.444V72.2546H139.331V73.0524C139.549 72.7821 139.83 72.5684 140.149 72.4295C140.467 72.2906 140.815 72.2306 141.162 72.2546C141.45 72.2353 141.74 72.2794 142.009 72.3838C142.278 72.4882 142.522 72.6504 142.721 72.8589C142.921 73.0674 143.073 73.3171 143.165 73.5904C143.258 73.8637 143.289 74.1539 143.256 74.4406Z" fill="#263238"/>
<path d="M152.282 72.2866V77.3605H151.411V76.5627C151.208 76.8237 150.945 77.0324 150.645 77.1712C150.344 77.31 150.015 77.3749 149.684 77.3605C149.387 77.391 149.086 77.3546 148.805 77.254C148.524 77.1534 148.268 76.9911 148.058 76.7791C147.848 76.567 147.688 76.3107 147.591 76.0289C147.493 75.747 147.46 75.4469 147.493 75.1506V72.2307H148.413V75.0469C148.413 76.0361 148.916 76.5387 149.788 76.5387C150.01 76.5546 150.232 76.5212 150.439 76.441C150.647 76.3607 150.833 76.2355 150.986 76.0745C151.139 75.9135 151.254 75.7207 151.324 75.5099C151.393 75.299 151.414 75.0755 151.387 74.8554V72.2307L152.282 72.2866Z" fill="#263238"/>
<path d="M159.301 74.8235C159.319 75.166 159.265 75.5085 159.143 75.8291C159.021 76.1497 158.833 76.4414 158.592 76.6854C158.35 76.9294 158.06 77.1205 157.74 77.2463C157.421 77.3722 157.078 77.4301 156.735 77.4163C156.397 77.4294 156.061 77.3642 155.753 77.2258C155.445 77.0873 155.174 76.8794 154.96 76.6185V79.2352H154.041V72.3105H154.92V73.1083C155.131 72.8305 155.406 72.6078 155.722 72.4592C156.038 72.3105 156.386 72.2404 156.735 72.2546C157.076 72.2399 157.417 72.2962 157.736 72.4202C158.054 72.5442 158.344 72.733 158.585 72.9747C158.827 73.2164 159.015 73.5056 159.138 73.8239C159.261 74.1422 159.317 74.4826 159.301 74.8235ZM158.374 74.8235C158.358 74.49 158.245 74.1684 158.048 73.8985C157.851 73.6286 157.579 73.4222 157.266 73.3049C156.953 73.1876 156.612 73.1645 156.286 73.2385C155.959 73.3124 155.662 73.4802 155.43 73.7211C155.199 73.9619 155.043 74.2653 154.982 74.5936C154.922 74.9219 154.959 75.2607 155.089 75.5682C155.219 75.8757 155.437 76.1383 155.715 76.3236C155.994 76.5088 156.32 76.6086 156.655 76.6105C156.888 76.6154 157.12 76.5719 157.335 76.4829C157.551 76.3938 157.745 76.2611 157.907 76.0932C158.068 75.9253 158.193 75.7257 158.274 75.5072C158.354 75.2886 158.388 75.0558 158.374 74.8235Z" fill="#263238"/>
</g>
<path d="M193.308 114.832H88.7119V132.703H193.308V114.832Z" fill="white"/>
<g opacity="0.4">
<path d="M94.4358 120.855H94.9794V125.507H97.8493V125.977H94.4358V120.855Z" fill="#263238"/>
<path d="M101.567 123.592V125.985H101.071V125.387C100.926 125.6 100.726 125.772 100.493 125.884C100.26 125.996 100.002 126.045 99.7439 126.025C98.8726 126.025 98.3369 125.57 98.3369 124.9C98.3369 124.23 98.7127 123.815 99.8239 123.815H101.047V123.584C101.047 122.922 100.671 122.563 99.9518 122.563C99.4846 122.557 99.0307 122.718 98.6727 123.017L98.4329 122.627C98.8893 122.274 99.4546 122.09 100.032 122.108C100.235 122.083 100.441 122.105 100.635 122.17C100.83 122.235 101.007 122.342 101.154 122.485C101.301 122.627 101.414 122.8 101.486 122.992C101.557 123.183 101.585 123.388 101.567 123.592ZM101.047 124.82V124.19H99.8399C99.0884 124.19 98.8486 124.485 98.8486 124.884C98.8486 125.283 99.2083 125.602 99.8239 125.602C100.084 125.618 100.343 125.551 100.563 125.411C100.783 125.27 100.953 125.063 101.047 124.82Z" fill="#263238"/>
<path d="M102.446 125.57L102.678 125.164C103.081 125.444 103.561 125.595 104.053 125.594C104.788 125.594 105.084 125.347 105.084 124.964C105.084 123.959 102.59 124.749 102.59 123.233C102.59 122.603 103.125 122.132 104.109 122.132C104.589 122.126 105.061 122.25 105.476 122.491L105.244 122.906C104.908 122.684 104.512 122.57 104.109 122.579C103.413 122.579 103.11 122.85 103.11 123.217C103.11 124.254 105.604 123.472 105.604 124.948C105.604 125.618 105.02 126.049 104.005 126.049C103.447 126.061 102.9 125.893 102.446 125.57Z" fill="#263238"/>
<path d="M108.634 125.746C108.406 125.926 108.124 126.022 107.834 126.017C107.682 126.034 107.528 126.016 107.384 125.965C107.24 125.914 107.109 125.832 107.001 125.724C106.893 125.616 106.81 125.485 106.759 125.341C106.708 125.197 106.69 125.044 106.707 124.892V122.571H106.011V122.132H106.707V121.286H107.227V122.132H108.394V122.571H107.227V124.868C107.213 124.96 107.22 125.054 107.248 125.143C107.276 125.231 107.324 125.312 107.388 125.38C107.451 125.448 107.53 125.5 107.617 125.533C107.704 125.566 107.797 125.579 107.89 125.57C108.1 125.577 108.305 125.506 108.466 125.371L108.634 125.746Z" fill="#263238"/>
<path d="M115.828 120.855V125.977H115.381L112.087 121.821V125.977H111.543V120.855H111.991L115.293 125.012V120.855H115.828Z" fill="#263238"/>
<path d="M120.337 123.592V125.985H119.825V125.387C119.681 125.601 119.482 125.774 119.249 125.886C119.016 125.998 118.756 126.046 118.498 126.025C117.627 126.025 117.091 125.57 117.091 124.9C117.091 124.23 117.475 123.815 118.586 123.815H119.825V123.584C119.825 122.922 119.45 122.563 118.73 122.563C118.263 122.557 117.809 122.718 117.451 123.017L117.211 122.627C117.667 122.272 118.233 122.088 118.81 122.108C119.013 122.085 119.218 122.107 119.411 122.172C119.604 122.238 119.78 122.346 119.927 122.488C120.073 122.63 120.185 122.803 120.256 122.994C120.327 123.185 120.355 123.389 120.337 123.592ZM119.817 124.82V124.19H118.602C117.859 124.19 117.619 124.485 117.619 124.884C117.619 125.283 117.979 125.602 118.594 125.602C118.856 125.62 119.117 125.554 119.338 125.413C119.56 125.272 119.731 125.065 119.825 124.82H119.817Z" fill="#263238"/>
<path d="M128.115 123.743V125.977H127.596V123.799C127.596 123.002 127.18 122.571 126.485 122.571C126.304 122.562 126.124 122.593 125.957 122.662C125.79 122.73 125.64 122.834 125.518 122.966C125.395 123.098 125.303 123.256 125.248 123.427C125.192 123.599 125.175 123.78 125.198 123.959V125.977H124.678V123.799C124.678 123.002 124.262 122.571 123.559 122.571C123.378 122.562 123.198 122.593 123.031 122.662C122.864 122.73 122.714 122.834 122.592 122.966C122.469 123.098 122.377 123.256 122.322 123.427C122.266 123.599 122.249 123.78 122.272 123.959V125.977H121.752V122.132H122.224V122.834C122.375 122.599 122.585 122.407 122.833 122.278C123.081 122.15 123.359 122.088 123.639 122.1C123.922 122.077 124.206 122.141 124.452 122.283C124.698 122.426 124.894 122.641 125.014 122.898C125.171 122.641 125.396 122.431 125.663 122.291C125.931 122.15 126.231 122.084 126.533 122.1C126.751 122.079 126.972 122.107 127.178 122.183C127.385 122.259 127.571 122.381 127.723 122.539C127.875 122.697 127.99 122.888 128.058 123.096C128.126 123.305 128.145 123.526 128.115 123.743Z" fill="#263238"/>
<path d="M132.904 124.214H129.706C129.718 124.402 129.766 124.585 129.848 124.754C129.931 124.923 130.046 125.075 130.187 125.199C130.328 125.324 130.492 125.419 130.671 125.48C130.849 125.541 131.037 125.566 131.225 125.554C131.447 125.562 131.668 125.52 131.872 125.433C132.077 125.347 132.26 125.216 132.408 125.052L132.696 125.387C132.419 125.676 132.063 125.876 131.672 125.964C131.281 126.052 130.873 126.023 130.499 125.881C130.125 125.739 129.801 125.49 129.567 125.165C129.334 124.84 129.201 124.454 129.187 124.055C129.174 123.801 129.213 123.546 129.302 123.308C129.391 123.07 129.528 122.852 129.705 122.669C129.882 122.486 130.095 122.341 130.33 122.243C130.565 122.145 130.818 122.096 131.073 122.1C131.328 122.095 131.581 122.143 131.816 122.241C132.051 122.338 132.263 122.483 132.439 122.667C132.615 122.851 132.75 123.069 132.837 123.308C132.924 123.547 132.961 123.801 132.944 124.055C132.912 124.102 132.904 124.158 132.904 124.214ZM129.706 123.831H132.44C132.44 123.469 132.296 123.122 132.04 122.867C131.784 122.611 131.436 122.467 131.073 122.467C130.711 122.467 130.363 122.611 130.107 122.867C129.85 123.122 129.706 123.469 129.706 123.831Z" fill="#263238"/>
</g>
<path d="M193.308 90.4201H88.7119V108.29H193.308V90.4201Z" fill="white"/>
<g opacity="0.4">
<path d="M94.9794 96.914V98.9245H97.6334V99.3951H94.9794V101.565H94.4358V96.4434H97.9532V96.914H94.9794Z" fill="#263238"/>
<path d="M98.7766 96.4992C98.775 96.4228 98.7964 96.3477 98.838 96.2835C98.8796 96.2193 98.9394 96.169 99.0099 96.139C99.0804 96.109 99.1583 96.1008 99.2335 96.1153C99.3087 96.1298 99.3779 96.1665 99.432 96.2205C99.4862 96.2745 99.523 96.3435 99.5375 96.4185C99.5521 96.4935 99.5438 96.5712 99.5138 96.6415C99.4837 96.7118 99.4333 96.7715 99.3689 96.8129C99.3045 96.8544 99.2292 96.8757 99.1526 96.8741C99.0529 96.8741 98.9572 96.8346 98.8867 96.7643C98.8162 96.694 98.7766 96.5986 98.7766 96.4992ZM98.8886 97.7198H99.4086V101.565H98.8886V97.7198Z" fill="#263238"/>
<path d="M102.806 97.6878V98.1904H102.678C102.494 98.1815 102.311 98.2132 102.141 98.2833C101.971 98.3534 101.819 98.4601 101.695 98.5958C101.571 98.7315 101.479 98.8929 101.425 99.0683C101.371 99.2437 101.357 99.4289 101.383 99.6105V101.573H100.863V97.7277H101.359V98.4457C101.497 98.1901 101.709 97.9814 101.966 97.8464C102.224 97.7114 102.516 97.6562 102.806 97.6878Z" fill="#263238"/>
<path d="M103.237 101.126L103.469 100.711C103.869 101.001 104.351 101.154 104.844 101.15C105.58 101.15 105.876 100.895 105.876 100.52C105.876 99.5148 103.381 100.305 103.381 98.7808C103.381 98.1585 103.917 97.6879 104.9 97.6879C105.381 97.6775 105.854 97.8018 106.267 98.0469L106.035 98.4617C105.699 98.2401 105.303 98.126 104.9 98.1346C104.205 98.1346 103.901 98.4059 103.901 98.7728C103.901 99.81 106.395 99.0281 106.395 100.504C106.395 101.166 105.812 101.597 104.796 101.597C104.239 101.611 103.693 101.446 103.237 101.126Z" fill="#263238"/>
<path d="M109.433 101.334C109.203 101.508 108.922 101.601 108.634 101.597C108.482 101.615 108.328 101.598 108.184 101.548C108.04 101.499 107.909 101.417 107.8 101.31C107.692 101.202 107.609 101.072 107.558 100.928C107.507 100.785 107.49 100.632 107.506 100.48V98.1586H106.811V97.7198H107.506V96.8502H108.026V97.6959H109.193V98.1346H108.026V100.424C108.013 100.517 108.02 100.611 108.048 100.7C108.076 100.788 108.123 100.87 108.187 100.938C108.251 101.006 108.329 101.059 108.416 101.093C108.503 101.127 108.596 101.141 108.689 101.134C108.899 101.137 109.102 101.066 109.265 100.935L109.433 101.334Z" fill="#263238"/>
<path d="M116.628 96.4434V101.565H116.18L112.886 97.4087V101.565H112.343V96.4434H112.79L116.092 100.6V96.4434H116.628Z" fill="#263238"/>
<path d="M121.128 99.1797V101.573H120.625V100.975C120.481 101.188 120.283 101.359 120.052 101.47C119.82 101.58 119.562 101.627 119.306 101.605C118.426 101.605 117.891 101.158 117.891 100.488C117.891 99.8179 118.275 99.4031 119.386 99.4031H120.625V99.1638C120.625 98.5096 120.249 98.1506 119.53 98.1506C119.062 98.1444 118.609 98.3058 118.251 98.6053L118.011 98.2144C118.467 97.8603 119.032 97.6768 119.61 97.6958C119.812 97.6723 120.017 97.6943 120.21 97.7601C120.403 97.8259 120.578 97.9338 120.724 98.0761C120.869 98.2183 120.981 98.3912 121.051 98.5822C121.121 98.7731 121.148 98.9773 121.128 99.1797ZM120.609 100.408V99.7781H119.394C118.65 99.7781 118.41 100.073 118.41 100.464C118.41 100.855 118.77 101.19 119.386 101.19C119.649 101.208 119.911 101.142 120.134 101.002C120.356 100.861 120.529 100.653 120.625 100.408H120.609Z" fill="#263238"/>
<path d="M128.907 99.3313V101.565H128.387V99.3871C128.387 98.5893 127.972 98.1585 127.276 98.1585C127.096 98.1502 126.916 98.1812 126.749 98.2495C126.582 98.3178 126.432 98.4217 126.309 98.5539C126.186 98.6862 126.094 98.8435 126.039 99.015C125.984 99.1865 125.967 99.3679 125.989 99.5467V101.565H125.469V99.3871C125.469 98.5893 125.054 98.1585 124.35 98.1585C124.17 98.1502 123.99 98.1812 123.823 98.2495C123.656 98.3178 123.506 98.4217 123.383 98.5539C123.261 98.6862 123.168 98.8435 123.113 99.015C123.058 99.1865 123.041 99.3679 123.063 99.5467V101.565H122.543V97.7197H123.023V98.4457C123.174 98.2105 123.384 98.0189 123.632 97.8901C123.881 97.7613 124.159 97.6998 124.438 97.7118C124.722 97.6885 125.005 97.7526 125.251 97.8952C125.497 98.0378 125.693 98.2523 125.813 98.5096C125.97 98.2513 126.194 98.0405 126.461 97.9C126.729 97.7594 127.03 97.6943 127.332 97.7118C127.548 97.6924 127.765 97.7214 127.969 97.7966C128.172 97.8719 128.356 97.9915 128.506 98.1467C128.657 98.3019 128.772 98.4888 128.841 98.6938C128.91 98.8987 128.933 99.1165 128.907 99.3313Z" fill="#263238"/>
<path d="M133.695 99.802H130.498C130.509 99.9896 130.557 100.173 130.64 100.342C130.722 100.511 130.837 100.662 130.978 100.787C131.119 100.911 131.284 101.007 131.462 101.068C131.64 101.129 131.829 101.154 132.017 101.142C132.239 101.149 132.461 101.107 132.665 101.019C132.87 100.931 133.052 100.799 133.2 100.632L133.488 100.975C133.21 101.263 132.854 101.464 132.464 101.552C132.073 101.64 131.665 101.611 131.29 101.469C130.916 101.327 130.592 101.078 130.359 100.753C130.125 100.428 129.993 100.042 129.978 99.6424C129.965 99.3883 130.004 99.1343 130.093 98.896C130.183 98.6576 130.32 98.4401 130.497 98.2569C130.674 98.0737 130.886 97.9286 131.122 97.8308C131.357 97.7329 131.61 97.6842 131.865 97.6879C132.119 97.6829 132.372 97.7307 132.607 97.8284C132.842 97.926 133.054 98.0713 133.23 98.2551C133.406 98.4388 133.542 98.657 133.629 98.8958C133.716 99.1346 133.752 99.3889 133.735 99.6424C133.703 99.6823 133.695 99.7381 133.695 99.802ZM130.498 99.4111H133.232C133.232 99.0493 133.088 98.7023 132.831 98.4464C132.575 98.1906 132.227 98.0468 131.865 98.0468C131.502 98.0468 131.154 98.1906 130.898 98.4464C130.642 98.7023 130.498 99.0493 130.498 99.4111Z" fill="#263238"/>
</g>
<path d="M49.3563 242.27H48.5968C48.5968 241.145 49.5322 214.786 54.1288 210.359C58.8534 205.771 64.4094 210.295 64.4574 210.359L63.9777 210.933C63.7699 210.765 58.8854 206.808 54.6485 210.933C50.2756 215.089 49.3643 241.999 49.3563 242.27Z" fill="#436A02"/>
<path d="M48.9726 247.559L48.2211 247.487C48.2211 247.168 51.195 215.48 39.6913 202.301L40.2589 201.806C51.9784 215.233 49.0046 247.24 48.9726 247.559Z" fill="#436A02"/>
<path d="M49.3403 244.176C49.2444 242.677 47.03 207.479 55.8716 199.341L56.3832 199.9C47.8054 207.766 50.0678 243.778 50.0917 244.121L49.3403 244.176Z" fill="#436A02"/>
<path d="M48.2211 244.153C48.2211 243.913 47.9493 220.219 41.6579 216.653C41.123 216.301 40.5112 216.082 39.874 216.016C39.2368 215.949 38.5929 216.036 37.9965 216.27C34.3112 217.794 32.3526 224.814 32.3286 224.886L31.6011 224.687C31.6811 224.383 33.6796 217.243 37.7087 215.576C38.4106 215.295 39.1701 215.186 39.923 215.26C40.6758 215.333 41.3998 215.587 42.0336 215.999C48.6928 219.804 48.9726 243.123 48.9806 244.145L48.2211 244.153Z" fill="#436A02"/>
<path d="M50.8113 244.168C50.7633 243.371 49.796 225.469 54.8883 218.823C56.2473 217.06 57.7502 216.222 59.3811 216.342C63.0024 216.589 65.7764 221.488 65.9283 221.695L65.2728 222.07C65.2728 222.022 62.5388 217.283 59.3251 217.092C57.9741 216.988 56.679 217.73 55.4879 219.286C50.5634 225.668 51.5547 243.945 51.5627 244.129L50.8113 244.168Z" fill="#436A02"/>
<path d="M49.796 246.65L49.0445 246.594C49.0445 246.163 52.2422 203.418 46.966 196.286L47.5736 195.839C53.0256 203.194 49.9319 244.879 49.796 246.65Z" fill="#436A02"/>
<path d="M36.2458 219.828C36.2458 219.828 39.5074 221.033 38.5401 223.865C37.5728 226.697 27.2443 231.364 27.2443 231.364C27.2443 231.364 22.9194 227.415 26.8925 220.993C30.8657 214.571 36.1578 217.802 36.2458 219.828Z" fill="#436A02"/>
<path opacity="0.2" d="M36.2458 219.828C36.2458 219.828 39.5074 221.033 38.5401 223.865C37.5728 226.697 27.2443 231.364 27.2443 231.364C27.2443 231.364 22.9194 227.415 26.8925 220.993C30.8657 214.571 36.1578 217.802 36.2458 219.828Z" fill="black"/>
<path d="M50.4355 214.435C50.4355 214.435 46.958 214.292 46.7582 217.275C46.5583 220.259 54.2728 228.54 54.2728 228.54C54.2728 228.54 59.7888 226.546 58.6056 219.086C57.4225 211.627 51.2989 212.592 50.4355 214.435Z" fill="#436A02"/>
<path opacity="0.2" d="M50.4355 214.435C50.4355 214.435 46.958 214.292 46.7582 217.275C46.5583 220.259 54.2728 228.54 54.2728 228.54C54.2728 228.54 59.7888 226.546 58.6056 219.086C57.4225 211.627 51.2989 212.592 50.4355 214.435Z" fill="black"/>
<path d="M53.3774 200.123C53.3774 200.123 51.0591 199.876 51.2429 198.472C51.4268 197.067 60.2524 193.438 65.4567 199.269C65.4567 199.269 62.1231 204.981 57.3105 205.061C52.498 205.141 53.3774 200.123 53.3774 200.123Z" fill="#436A02"/>
<path opacity="0.2" d="M53.3774 200.123C53.3774 200.123 51.0591 199.876 51.2429 198.472C51.4268 197.067 60.2524 193.438 65.4567 199.269C65.4567 199.269 62.1231 204.981 57.3105 205.061C52.498 205.141 53.3774 200.123 53.3774 200.123Z" fill="black"/>
<path d="M49.0605 196.701C49.0605 196.701 51.155 197.714 51.7466 196.421C52.3382 195.129 46.7662 187.398 39.2436 189.624C39.2436 189.624 39.0438 196.23 43.0888 198.839C47.1339 201.447 49.0605 196.701 49.0605 196.701Z" fill="#436A02"/>
<path opacity="0.2" d="M49.0605 196.701C49.0605 196.701 51.155 197.714 51.7466 196.421C52.3382 195.129 46.7662 187.398 39.2436 189.624C39.2436 189.624 39.0438 196.23 43.0888 198.839C47.1339 201.447 49.0605 196.701 49.0605 196.701Z" fill="black"/>
<path d="M60.0286 218.695C60.0286 218.695 58.4297 217.403 60.1565 216.773C61.8832 216.142 70.3491 216.326 70.4371 224.695C70.4371 224.695 60.5722 226.33 59.3571 223.139C58.1419 219.948 60.0286 218.695 60.0286 218.695Z" fill="#436A02"/>
<path opacity="0.2" d="M60.0286 218.695C60.0286 218.695 58.4297 217.403 60.1565 216.773C61.8832 216.142 70.3491 216.326 70.4371 224.695C70.4371 224.695 60.5722 226.33 59.3571 223.139C58.1419 219.948 60.0286 218.695 60.0286 218.695Z" fill="black"/>
<path d="M39.8831 199.916C39.8831 199.916 41.482 198.623 39.7552 198.001C38.0285 197.379 29.5626 197.546 29.4747 205.915C29.4747 205.915 39.3395 207.558 40.5547 204.367C41.7698 201.176 39.8831 199.916 39.8831 199.916Z" fill="#436A02"/>
<path opacity="0.2" d="M39.8831 199.916C39.8831 199.916 41.482 198.623 39.7552 198.001C38.0285 197.379 29.5626 197.546 29.4747 205.915C29.4747 205.915 39.3395 207.558 40.5547 204.367C41.7698 201.176 39.8831 199.916 39.8831 199.916Z" fill="black"/>
<path d="M45.1274 206.657C45.1274 206.657 45.2713 205.061 44.0002 205.707C42.7291 206.354 38.3243 211.077 42.897 215.584C42.897 215.584 49.0605 211.029 47.9493 208.659C46.8381 206.29 45.1274 206.657 45.1274 206.657Z" fill="#436A02"/>
<path opacity="0.2" d="M45.1274 206.657C45.1274 206.657 45.2713 205.061 44.0002 205.707C42.7291 206.354 38.3243 211.077 42.897 215.584C42.897 215.584 49.0605 211.029 47.9493 208.659C46.8381 206.29 45.1274 206.657 45.1274 206.657Z" fill="black"/>
<path d="M61.4675 208.891C61.4675 208.891 60.5082 207.638 61.9152 207.487C63.3222 207.335 69.5896 209.002 68.1267 215.257C68.1267 215.257 60.4842 214.683 60.1325 212.066C59.7807 209.449 61.4675 208.891 61.4675 208.891Z" fill="#436A02"/>
<path opacity="0.2" d="M61.4675 208.891C61.4675 208.891 60.5082 207.638 61.9152 207.487C63.3222 207.335 69.5896 209.002 68.1267 215.257C68.1267 215.257 60.4842 214.683 60.1325 212.066C59.7807 209.449 61.4675 208.891 61.4675 208.891Z" fill="black"/>
<path d="M36.8133 267.352H61.5235L64.8091 243.371H33.5277L36.8133 267.352Z" fill="#263238"/>
<path opacity="0.2" d="M36.8133 267.352H61.5235L64.8091 243.371H33.5277L36.8133 267.352Z" fill="white"/>
<path d="M67.9109 241.424V243.706C67.9109 244.438 67.6195 245.14 67.1007 245.658C66.582 246.175 65.8785 246.466 65.1449 246.466H32.8882C32.1546 246.466 31.4511 246.175 30.9323 245.658C30.4136 245.14 30.1222 244.438 30.1222 243.706V241.424H67.9109Z" fill="#263238"/>
<path d="M273.81 14.1282H250.843C248.968 14.1282 247.171 14.8712 245.846 16.1938C244.52 17.5164 243.776 19.3102 243.776 21.1806V41.1251C243.775 42.0519 243.957 42.9699 244.311 43.8264C244.666 44.683 245.187 45.4614 245.843 46.1171C246.499 46.7728 247.279 47.293 248.136 47.6479C248.994 48.0028 249.914 48.1855 250.843 48.1855H257.55L255.951 54.48L262.346 48.1855H273.85C275.726 48.1855 277.526 47.4416 278.853 46.1176C280.18 44.7935 280.925 42.9977 280.925 41.1251V21.1806C280.925 20.2504 280.741 19.3294 280.382 18.4707C280.024 17.6119 279.5 16.8323 278.838 16.1768C278.177 15.5213 277.392 15.0028 276.529 14.6512C275.666 14.2997 274.742 14.1219 273.81 14.1282Z" fill="#436A02"/>
<path opacity="0.7" d="M273.81 14.1282H250.843C248.968 14.1282 247.171 14.8712 245.846 16.1938C244.52 17.5164 243.776 19.3102 243.776 21.1806V41.1251C243.775 42.0519 243.957 42.9699 244.311 43.8264C244.666 44.683 245.187 45.4614 245.843 46.1171C246.499 46.7728 247.279 47.293 248.136 47.6479C248.994 48.0028 249.914 48.1855 250.843 48.1855H257.55L255.951 54.48L262.346 48.1855H273.85C275.726 48.1855 277.526 47.4416 278.853 46.1176C280.18 44.7935 280.925 42.9977 280.925 41.1251V21.1806C280.925 20.2504 280.741 19.3294 280.382 18.4707C280.024 17.6119 279.5 16.8323 278.838 16.1768C278.177 15.5213 277.392 15.0028 276.529 14.6512C275.666 14.2997 274.742 14.1219 273.81 14.1282Z" fill="white"/>
<path d="M262.33 39.9683C267.253 39.9683 271.244 35.9858 271.244 31.0731C271.244 26.1603 267.253 22.1778 262.33 22.1778C257.408 22.1778 253.417 26.1603 253.417 31.0731C253.417 35.9858 257.408 39.9683 262.33 39.9683Z" fill="white"/>
<path d="M262.33 19.6968C260.076 19.6968 257.872 20.364 255.997 21.614C254.122 22.8641 252.661 24.6408 251.798 26.7196C250.936 28.7984 250.71 31.0858 251.15 33.2926C251.59 35.4994 252.675 37.5264 254.27 39.1174C255.864 40.7085 257.895 41.7919 260.106 42.2309C262.318 42.6699 264.61 42.4446 266.693 41.5835C268.776 40.7225 270.556 39.2643 271.809 37.3935C273.062 35.5227 273.73 33.3232 273.73 31.0731C273.731 29.5789 273.437 28.0991 272.865 26.7184C272.292 25.3376 271.452 24.0831 270.394 23.0265C269.335 21.9699 268.078 21.132 266.694 20.5606C265.311 19.9893 263.828 19.6957 262.33 19.6968ZM268.798 27.6746L261.931 35.7481C261.833 35.8648 261.711 35.9583 261.573 36.0218C261.434 36.0853 261.283 36.1171 261.131 36.1151C260.979 36.116 260.829 36.0836 260.691 36.0202C260.553 35.9568 260.43 35.8639 260.332 35.7481L255.863 30.4908C255.769 30.3868 255.696 30.2649 255.65 30.1324C255.604 29.9999 255.585 29.8595 255.594 29.7195C255.603 29.5795 255.641 29.4428 255.704 29.3176C255.768 29.1924 255.856 29.0812 255.963 28.9906C256.07 28.9001 256.195 28.832 256.329 28.7905C256.464 28.749 256.605 28.735 256.745 28.7491C256.885 28.7633 257.02 28.8054 257.143 28.873C257.267 28.9406 257.375 29.0323 257.462 29.1425L261.131 33.4585L267.199 26.3263C267.381 26.1256 267.634 26.0034 267.905 25.9854C268.176 25.9675 268.443 26.0551 268.651 26.23C268.858 26.4048 268.989 26.6531 269.017 26.9226C269.044 27.1921 268.966 27.4617 268.798 27.6746Z" fill="#436A02"/>
<path d="M269.829 137.186C269.829 137.186 255.911 135.431 234.822 141.175C234.822 141.175 231.433 103.568 231.832 98.3979C232.232 93.2283 264.393 94.744 264.393 94.744C264.393 94.744 265.192 109.798 267.287 118.877C269.381 127.956 270.916 135.439 269.829 137.186Z" fill="#436A02"/>
<path opacity="0.2" d="M269.829 137.186C269.829 137.186 255.911 135.431 234.822 141.175C234.822 141.175 231.433 103.568 231.832 98.3979C232.232 93.2283 264.393 94.744 264.393 94.744C264.393 94.744 265.192 109.798 267.287 118.877C269.381 127.956 270.916 135.439 269.829 137.186Z" fill="black"/>
<path d="M224.654 261.688L230.33 263.291L231.681 254.476L232.408 249.761L226.732 248.157L225.765 254.476L224.654 261.688Z" fill="#E4897B"/>
<path d="M257.286 262.151L263.138 262.924L263.194 254.476L263.234 249.226L257.374 248.461L257.334 254.476L257.286 262.151Z" fill="#E4897B"/>
<path opacity="0.2" d="M257.374 248.461L257.334 254.476H263.194L263.234 249.226L257.374 248.461Z" fill="black"/>
<path opacity="0.2" d="M225.765 254.476H231.681L232.408 249.761L226.732 248.157L225.765 254.476Z" fill="black"/>
<path d="M199.456 101.485L193.82 99.8259L194.851 106.248C194.851 106.248 199.968 107.421 200.447 104.764L199.456 101.485Z" fill="#E4897B"/>
<path d="M188.192 101.318L190.958 106.535L194.851 106.248L193.82 99.8259L188.192 101.318Z" fill="#E4897B"/>
<path d="M207.234 103.129L197.977 101.062L197.138 105.546L205.539 107.588L207.234 103.129Z" fill="#E4897B"/>
<path d="M235.238 99.076L234.694 99.7222C233.527 101.086 230.697 104.381 227.747 107.221C225.349 109.535 222.951 111.553 221.352 111.96C216.819 113.125 200.343 108.282 200.343 108.282L202.046 101.613C202.046 101.613 217.395 103.647 218.586 103.647C219.489 103.647 228.827 90.1488 231.089 89.0399L235.238 99.076Z" fill="#436A02"/>
<path opacity="0.2" d="M234.694 99.7222C233.527 101.086 230.697 104.381 227.747 107.221C228.339 102.546 230.058 98.2543 232.32 95.5418C232.531 95.28 232.773 95.0443 233.04 94.8398L234.694 99.7222Z" fill="black"/>
<path d="M224.726 260.802L231.169 260.635C231.285 260.631 231.399 260.667 231.492 260.737C231.585 260.806 231.652 260.905 231.681 261.018L233.04 266.195C233.072 266.319 233.076 266.449 233.052 266.575C233.027 266.7 232.974 266.819 232.898 266.922C232.821 267.024 232.722 267.108 232.608 267.168C232.494 267.227 232.368 267.26 232.24 267.264C229.914 267.264 226.548 267.264 223.63 267.32C220.209 267.416 218.034 267.248 214.037 267.32C211.639 267.384 210.84 264.975 211.863 264.727C216.444 263.594 219.441 263.818 223.343 261.265C223.754 260.991 224.232 260.831 224.726 260.802Z" fill="#263238"/>
<path d="M224.166 261.632C223.223 261.839 221.544 262.119 220.872 261.568C220.775 261.487 220.697 261.384 220.647 261.268C220.597 261.151 220.576 261.024 220.585 260.898C220.584 260.822 220.604 260.747 220.642 260.681C220.68 260.616 220.735 260.561 220.8 260.523C221.512 260.1 223.918 261.241 224.198 261.369C224.223 261.382 224.243 261.401 224.257 261.425C224.271 261.449 224.278 261.477 224.278 261.504C224.277 261.535 224.265 261.564 224.244 261.588C224.224 261.611 224.196 261.626 224.166 261.632ZM220.968 260.746H220.92C220.894 260.762 220.872 260.784 220.856 260.81C220.841 260.837 220.833 260.867 220.832 260.898C220.826 260.98 220.839 261.063 220.871 261.14C220.903 261.216 220.953 261.284 221.016 261.337C221.392 261.648 222.367 261.68 223.662 261.424C222.727 261.034 221.424 260.579 220.984 260.746H220.968Z" fill="#436A02"/>
<path d="M224.166 261.632H224.07C223.343 261.329 221.888 260.1 221.968 259.438C221.968 259.278 222.095 259.079 222.479 259.031C222.62 259.013 222.763 259.022 222.9 259.059C223.038 259.096 223.166 259.16 223.279 259.247C224.078 259.845 224.262 261.417 224.278 261.48C224.28 261.505 224.276 261.529 224.266 261.551C224.257 261.574 224.241 261.593 224.222 261.608L224.166 261.632ZM222.375 259.342C222.255 259.382 222.247 259.446 222.247 259.47C222.199 259.869 223.191 260.842 223.934 261.257C223.848 260.587 223.552 259.961 223.087 259.47C223.008 259.404 222.916 259.355 222.816 259.328C222.717 259.3 222.613 259.294 222.511 259.31C222.465 259.314 222.419 259.325 222.375 259.342Z" fill="#436A02"/>
<path d="M257.518 260.802L263.961 260.635C264.078 260.631 264.194 260.666 264.288 260.736C264.382 260.805 264.45 260.905 264.481 261.018L265.832 266.195C265.866 266.319 265.871 266.449 265.847 266.576C265.823 266.702 265.771 266.822 265.694 266.925C265.617 267.028 265.517 267.112 265.402 267.171C265.288 267.23 265.161 267.262 265.032 267.264C262.706 267.264 259.341 267.264 256.415 267.32C253.001 267.416 250.819 267.248 246.822 267.32C244.423 267.384 243.624 264.975 244.647 264.727C249.228 263.594 252.218 263.818 256.119 261.265C256.535 260.988 257.018 260.829 257.518 260.802Z" fill="#263238"/>
<path d="M256.966 261.632C256.023 261.839 254.336 262.119 253.673 261.568C253.575 261.487 253.498 261.384 253.448 261.268C253.398 261.151 253.376 261.024 253.385 260.898C253.385 260.822 253.404 260.747 253.442 260.681C253.48 260.616 253.535 260.561 253.601 260.523C254.304 260.1 256.719 261.241 256.99 261.369C257.017 261.379 257.039 261.398 257.054 261.423C257.068 261.447 257.074 261.476 257.07 261.504C257.068 261.534 257.057 261.562 257.038 261.584C257.02 261.607 256.995 261.624 256.966 261.632ZM253.769 260.746H253.721C253.694 260.761 253.673 260.784 253.659 260.811C253.644 260.837 253.638 260.868 253.641 260.898C253.633 260.981 253.645 261.064 253.677 261.14C253.709 261.217 253.76 261.284 253.825 261.337C254.2 261.648 255.168 261.68 256.471 261.424C255.519 261.034 254.216 260.579 253.777 260.746H253.769Z" fill="#436A02"/>
<path d="M256.966 261.632H256.862C256.143 261.329 254.68 260.1 254.768 259.438C254.768 259.278 254.888 259.079 255.272 259.031C255.412 259.012 255.556 259.021 255.693 259.058C255.83 259.095 255.959 259.159 256.071 259.247C256.63 259.868 256.98 260.65 257.07 261.48C257.074 261.505 257.071 261.53 257.061 261.552C257.051 261.575 257.035 261.594 257.014 261.608L256.966 261.632ZM255.168 259.342C255.056 259.382 255.048 259.446 255.048 259.47C254.992 259.869 255.991 260.842 256.735 261.257C256.643 260.589 256.347 259.964 255.887 259.47C255.808 259.404 255.716 259.356 255.617 259.329C255.517 259.301 255.413 259.295 255.312 259.31L255.168 259.342Z" fill="#436A02"/>
<path d="M269.357 133.756C272.459 147.166 267.135 252.673 267.135 252.673H256.854L252.458 164.749L236.269 252.673L225.277 251.875C232.472 183.761 238.811 143.098 238.811 143.098V137.96L269.357 133.756Z" fill="#263238"/>
<path opacity="0.4" d="M225.277 251.875L236.269 252.673L249.012 183.457L252.458 164.749L256.854 252.673H267.135C267.135 252.673 272.459 147.166 269.357 133.756L238.795 137.96V143.098C238.795 143.098 232.464 183.761 225.277 251.875Z" fill="white"/>
<path d="M263.817 84.0857C263.502 90.4978 263.665 96.9243 264.305 103.312C264.737 107.78 265.328 112 265.96 115.805C267.439 124.733 269.118 131.426 269.357 133.764L238.795 137.968C227.651 106.854 231.848 88.7767 231.848 88.7767C234.134 87.8351 236.475 87.0357 238.859 86.3833C239.363 86.2477 239.875 86.1201 240.402 86.0004C244.695 85.1575 249.032 84.5608 253.393 84.2134C254.192 84.1416 255.064 84.0857 255.879 84.0458C260.052 83.8384 263.817 84.0857 263.817 84.0857Z" fill="#263238"/>
<path d="M247.461 70.0847C247.685 74.3528 248.141 82.3625 251.698 84.3969C251.698 84.3969 249.484 88.6012 244.695 89.032C241.074 89.3511 241.314 85.785 241.314 85.785C243.408 84.2293 242.912 81.5887 241.314 78.605L247.461 70.0847Z" fill="#E4897B"/>
<path opacity="0.2" d="M244.951 73.563L241.338 78.605C241.718 79.2945 242.039 80.0151 242.297 80.759C243.976 80.0888 245.902 77.5678 245.623 75.7409C245.535 74.9799 245.307 74.2415 244.951 73.563Z" fill="black"/>
<path d="M231.872 61.4926C231.177 63.7104 231.561 68.2578 234.654 66.7819C237.748 65.306 233.072 57.6872 231.872 61.4926Z" fill="#263238"/>
<path d="M247.861 64.4922C248.205 70.1803 248.66 73.4911 246.174 76.7142C242.393 81.5567 235.07 79.7537 233.024 74.265C231.185 69.3187 230.937 60.8463 236.221 57.9743C237.393 57.3383 238.706 57.0093 240.04 57.018C241.373 57.0267 242.683 57.3728 243.846 58.024C245.008 58.6752 245.987 59.6101 246.689 60.7414C247.391 61.8726 247.795 63.1631 247.861 64.4922Z" fill="#E4897B"/>
<path d="M243.864 61.3968V55.0146C243.864 55.0146 250.643 54.512 250.339 57.9744C254.096 59.8332 252.322 65.665 247.277 68.521C244.511 66.3112 244.831 60.9979 244.831 60.9979C244.535 61.1495 244.2 61.2772 243.864 61.3968Z" fill="#263238"/>
<path d="M250.619 68.9278C250.488 69.6237 250.219 70.2864 249.828 70.8769C249.437 71.4674 248.931 71.9738 248.341 72.3663C246.742 73.4114 245.359 72.1269 245.303 70.3319C245.255 68.7364 246.014 66.2154 247.853 65.8963C248.255 65.8337 248.667 65.8716 249.05 66.0066C249.434 66.1416 249.779 66.3695 250.053 66.6698C250.327 66.9702 250.522 67.3336 250.621 67.7277C250.72 68.1217 250.719 68.5341 250.619 68.9278Z" fill="#E4897B"/>
<path d="M239.444 67.0291C239.5 67.4918 239.3 67.8907 238.996 67.9227C238.692 67.9546 238.404 67.6115 238.348 67.1249C238.292 66.6382 238.492 66.2633 238.788 66.2313C239.084 66.1994 239.388 66.5345 239.444 67.0291Z" fill="#263238"/>
<path d="M234.216 67.6115C234.272 68.0743 234.072 68.4731 233.768 68.5051C233.464 68.537 233.176 68.1939 233.12 67.7073C233.064 67.2206 233.264 66.8457 233.568 66.8138C233.872 66.7819 234.144 67.1488 234.216 67.6115Z" fill="#263238"/>
<path d="M235.902 67.6514C235.498 69.078 234.898 70.4418 234.119 71.7042C234.464 71.881 234.842 71.9831 235.229 72.0037C235.616 72.0243 236.003 71.963 236.365 71.8238L235.902 67.6514Z" fill="#DE5753"/>
<path d="M239.059 73.3077C238.862 73.3579 238.662 73.3952 238.46 73.4194C238.424 73.4194 238.389 73.4051 238.364 73.3797C238.338 73.3542 238.324 73.3197 238.324 73.2838C238.324 73.2478 238.338 73.2133 238.364 73.1879C238.389 73.1624 238.424 73.1481 238.46 73.1481C239.034 73.0961 239.588 72.9102 240.076 72.6053C240.565 72.3005 240.975 71.8852 241.274 71.393C241.281 71.3769 241.291 71.3623 241.303 71.3503C241.316 71.3382 241.331 71.3289 241.348 71.3229C241.364 71.3169 241.382 71.3144 241.399 71.3155C241.417 71.3166 241.434 71.3212 241.45 71.3292C241.466 71.3369 241.481 71.3477 241.493 71.3612C241.505 71.3746 241.514 71.3904 241.52 71.4075C241.526 71.4246 241.529 71.4427 241.528 71.4608C241.526 71.4788 241.522 71.4965 241.513 71.5127C241.252 71.9658 240.899 72.3595 240.476 72.6686C240.054 72.9777 239.571 73.1954 239.059 73.3077Z" fill="#263238"/>
<path d="M240.85 65.1703C240.802 65.1815 240.751 65.1801 240.704 65.1661C240.656 65.1521 240.613 65.1261 240.578 65.0905C240.347 64.8374 240.059 64.6414 239.739 64.5182C239.418 64.395 239.073 64.3478 238.731 64.3805C238.696 64.3886 238.66 64.3894 238.624 64.3828C238.589 64.3762 238.555 64.3624 238.525 64.3422C238.495 64.3219 238.469 64.2958 238.45 64.2653C238.43 64.2349 238.417 64.2008 238.412 64.1651C238.405 64.13 238.405 64.0939 238.412 64.0588C238.419 64.0237 238.433 63.9904 238.453 63.9607C238.473 63.931 238.499 63.9056 238.529 63.8859C238.559 63.8662 238.592 63.8527 238.628 63.846C239.059 63.7947 239.497 63.8468 239.904 63.9981C240.311 64.1493 240.677 64.3953 240.97 64.7156C240.996 64.7402 241.017 64.7698 241.031 64.8028C241.045 64.8357 241.053 64.8712 241.053 64.907C241.053 64.9429 241.045 64.9784 241.031 65.0113C241.017 65.0442 240.996 65.0739 240.97 65.0985C240.936 65.131 240.895 65.1555 240.85 65.1703Z" fill="#263238"/>
<path d="M231.745 66.0718C231.693 66.0915 231.636 66.0915 231.585 66.0718C231.517 66.0483 231.461 65.999 231.43 65.9348C231.399 65.8705 231.394 65.7965 231.417 65.7288C231.549 65.3182 231.778 64.9455 232.086 64.6427C232.394 64.3398 232.77 64.1157 233.183 63.9896C233.253 63.9716 233.328 63.9821 233.39 64.0188C233.452 64.0554 233.497 64.1152 233.515 64.1851C233.533 64.2549 233.523 64.329 233.486 64.3911C233.449 64.4532 233.389 64.4982 233.319 64.5161C232.992 64.6167 232.695 64.7959 232.454 65.0379C232.213 65.28 232.035 65.5775 231.936 65.9043C231.921 65.9461 231.896 65.9834 231.862 66.0127C231.829 66.042 231.788 66.0623 231.745 66.0718Z" fill="#263238"/>
<path d="M246.87 63.7582C246.87 63.7582 242.873 62.2983 241.05 59.9847C241.05 59.9847 237.42 60.9341 236.677 62.3781C236.338 62.0882 236.118 61.6831 236.061 61.2412C236.003 60.7992 236.112 60.3516 236.365 59.9847C236.365 59.9847 233.647 60.5591 233.112 62.3781C232.67 62.1682 232.307 61.8225 232.077 61.3917C231.847 60.9609 231.761 60.4677 231.832 59.9847C231.832 59.9847 230.625 60.4395 230.234 62.3781C230.234 62.3781 227.236 56.1394 237.141 54.3524C236.391 54.0986 235.606 53.9666 234.814 53.9615C234.814 53.9615 241.729 51.1772 247.205 53.7222C252.681 56.2671 251.73 61.1974 246.87 63.7582Z" fill="#263238"/>
<path d="M271.716 139.133L262.123 140.409C262.123 140.409 258.165 112.814 256.423 103.903V84.8835L261.435 83.5671L265.32 84.8835C266.386 88.7099 267.206 92.6004 267.775 96.5311C268.246 99.5148 268.67 102.706 269.046 105.937C269.565 110.341 269.997 114.824 270.365 119.021C270.94 125.794 271.324 131.785 271.532 135.447C271.652 137.744 271.716 139.133 271.716 139.133Z" fill="#436A02"/>
<path d="M256.431 103.887C256.431 103.887 257.23 90.46 261.443 83.5353C261.443 83.5353 261.339 81.5568 260.5 81.2377C259.66 80.9185 256.431 82.8332 256.431 82.8332C256.431 82.8332 254.424 81.461 253.984 82.0993C253.545 82.7375 252.474 86.9817 256.431 103.887Z" fill="#436A02"/>
<path opacity="0.7" d="M256.431 103.887C256.431 103.887 257.23 90.46 261.443 83.5353C261.443 83.5353 261.339 81.5568 260.5 81.2377C259.66 80.9185 256.431 82.8332 256.431 82.8332C256.431 82.8332 254.424 81.461 253.984 82.0993C253.545 82.7375 252.474 86.9817 256.431 103.887Z" fill="white"/>
<path d="M234.622 142.81L235.718 143.608C235.718 143.608 234.119 134.713 234.774 112.215C234.774 111.13 234.846 110.085 234.886 109.088C235.686 90.0531 238.66 86.5907 238.883 86.3833L236.117 87.3247L231.105 89.0479C229.594 105.283 234.622 142.81 234.622 142.81Z" fill="#436A02"/>
<path d="M235.054 105.809C235.054 105.809 232.288 92.7576 233.112 88.2581C233.935 83.7586 236.885 85.761 236.885 85.761C236.885 85.761 239.595 83.5751 240.402 85.9844C240.402 85.9844 236.677 88.6011 235.054 105.809Z" fill="#436A02"/>
<path opacity="0.7" d="M235.054 105.809C235.054 105.809 232.288 92.7576 233.112 88.2581C233.935 83.7586 236.885 85.761 236.885 85.761C236.885 85.761 239.595 83.5751 240.402 85.9844C240.402 85.9844 236.677 88.6011 235.054 105.809Z" fill="white"/>
<path opacity="0.2" d="M269.03 105.905C264.937 103.615 264.393 97.64 264.393 97.64C264.641 97.5442 266.16 97.0257 267.759 96.4991C268.23 99.4828 268.654 102.674 269.03 105.905Z" fill="black"/>
<path opacity="0.2" d="M249.012 183.457L252.458 164.749L251.794 154.849C251.794 154.849 247.069 172.017 249.012 183.457Z" fill="black"/>
<path opacity="0.2" d="M271.516 135.415C268.942 135.239 266.719 135.072 266.719 135.072L266.232 124.629C267.034 124.128 267.997 123.951 268.926 124.134C269.558 122.466 270.037 120.744 270.357 118.989C270.916 125.762 271.308 131.761 271.516 135.415Z" fill="black"/>
<path d="M272.395 118.981L267.383 127.014L271.348 129.288L276.056 122.052L272.395 118.981Z" fill="#E4897B"/>
<path d="M265.104 84.7559C268.478 85.1228 282.82 104.764 283.451 110.684C284.083 116.603 275.025 126.823 275.025 126.823L268.982 123.273C268.982 123.273 275.121 113.851 275.441 111.306C275.761 108.761 264.209 98.4777 264.209 98.4777C263.336 96.1087 262.855 93.6135 262.786 91.0902C262.626 86.7663 265.104 84.7559 265.104 84.7559Z" fill="#436A02"/>
<path d="M266.224 124.637C266.224 124.637 271.38 125.738 273.458 128.977C273.458 128.977 271.3 135.718 269.757 136.452C268.214 137.186 264.393 137.186 264.393 137.186C264.393 137.186 264.145 129.687 266.224 124.637Z" fill="#436A02"/>
</svg>
