<svg width="24" height="19" viewBox="0 0 24 19" fill="none" xmlns="http://www.w3.org/2000/svg">
<g clip-path="url(#clip0_871_12370)">
<path d="M19.4046 7.77889C19.1606 4.00061 16.5331 0.357178 11.7143 0.357178C7.30686 0.357178 3.908 3.63318 3.728 8.00518C1.31657 8.75546 0 11.336 0 13.2143C0 16.1063 2.40343 18.6429 5.14286 18.6429H8.85714C8.93292 18.6429 9.00559 18.6128 9.05917 18.5592C9.11276 18.5056 9.14286 18.433 9.14286 18.3572C9.14286 18.2814 9.11276 18.2087 9.05917 18.1551C9.00559 18.1016 8.93292 18.0715 8.85714 18.0715H5.14286C2.70743 18.0715 0.571429 15.8018 0.571429 13.2143C0.571429 11.4709 2.09943 8.35718 5.14286 8.35718H6C6.07578 8.35718 6.14845 8.32708 6.20203 8.27349C6.25561 8.21991 6.28571 8.14724 6.28571 8.07146C6.28571 7.99569 6.25561 7.92302 6.20203 7.86943C6.14845 7.81585 6.07578 7.78575 6 7.78575H5.14286C4.852 7.78575 4.57714 7.81832 4.30914 7.86518C4.53314 4.44232 7.13486 0.928606 11.7143 0.928606C16.6217 0.928606 18.8571 4.77946 18.8571 8.35718V9.21432C18.8571 9.2901 18.8872 9.36277 18.9408 9.41635C18.9944 9.46993 19.0671 9.50004 19.1429 9.50004C19.2186 9.50004 19.2913 9.46993 19.3449 9.41635C19.3985 9.36277 19.4286 9.2901 19.4286 9.21432V8.35204C21.1537 8.54118 23.4286 10.3926 23.4286 13.2143C23.4286 15.4006 21.3194 18.0715 18.8571 18.0715H14.5714C12.7211 18.0715 12 17.3503 12 15.5V7.66175L14.3303 9.98746C14.3566 10.0148 14.3881 10.0366 14.4229 10.0516C14.4578 10.0666 14.4953 10.0746 14.5332 10.075C14.5711 10.0753 14.6088 10.0682 14.6439 10.0538C14.679 10.0395 14.7109 10.0184 14.7378 9.99157C14.7647 9.96478 14.7859 9.93291 14.8003 9.89782C14.8148 9.86273 14.822 9.82512 14.8218 9.78718C14.8215 9.74925 14.8137 9.71175 14.7987 9.67687C14.7838 9.64199 14.7621 9.61043 14.7349 9.58403L12.1857 7.04003C11.8463 6.70175 11.5829 6.70175 11.244 7.04003L8.69486 9.58403C8.64281 9.63792 8.61401 9.71009 8.61467 9.78501C8.61532 9.85992 8.64536 9.93158 8.69834 9.98456C8.75131 10.0375 8.82297 10.0676 8.89789 10.0682C8.9728 10.0689 9.04497 10.0401 9.09886 9.98804L11.4286 7.66175V15.5C11.4286 17.6737 12.3977 18.6429 14.5714 18.6429H18.8571C21.6269 18.6429 24 15.6578 24 13.2143C24 10.2617 21.5869 7.95261 19.4046 7.77889Z" fill="black"/>
</g>
<defs>
<clipPath id="clip0_871_12370">
<rect width="24" height="18.2857" fill="white" transform="translate(0 0.357178)"/>
</clipPath>
</defs>
</svg>
