<svg width="22" height="22" viewBox="0 0 22 22" fill="none" xmlns="http://www.w3.org/2000/svg">
<mask id="path-1-inside-1_710_1641" fill="white">
<path d="M17.3602 13.2462L13.84 11.4862C13.7707 11.4517 13.6935 11.436 13.6163 11.4409C13.539 11.4457 13.4644 11.4708 13.3999 11.5137L11.5694 12.7347C10.5632 12.2522 9.7517 11.4408 9.26914 10.4346L10.4902 8.6042C10.5331 8.53976 10.5582 8.46515 10.5631 8.38789C10.5679 8.31064 10.5523 8.23348 10.5177 8.1642L8.7576 4.6442C8.72109 4.57073 8.66476 4.50892 8.59497 4.46577C8.52518 4.42262 8.44472 4.39984 8.36267 4.4C7.31233 4.4 6.30502 4.81721 5.56232 5.55986C4.81962 6.3025 4.40237 7.30974 4.40237 8.36C4.40499 10.8098 5.37941 13.1585 7.1118 14.8908C8.8442 16.623 11.1931 17.5974 13.6431 17.6C14.6934 17.6 15.7007 17.1828 16.4434 16.4401C17.1861 15.6975 17.6034 14.6903 17.6034 13.64C17.6034 13.5583 17.5807 13.4781 17.5378 13.4086C17.4948 13.339 17.4333 13.2828 17.3602 13.2462ZM13.6431 16.72C11.4264 16.7177 9.3012 15.8361 7.73378 14.2688C6.16637 12.7015 5.28477 10.5765 5.28244 8.36C5.28231 7.58912 5.57127 6.84622 6.09227 6.27802C6.61326 5.70982 7.3284 5.35763 8.09645 5.291L9.61456 8.3281L8.40447 10.1475C8.36414 10.2075 8.33923 10.2766 8.33193 10.3485C8.32464 10.4205 8.3352 10.4931 8.36267 10.56C8.94731 11.9498 10.053 13.0554 11.4429 13.64C11.5099 13.6678 11.5827 13.6787 11.6548 13.6716C11.727 13.6645 11.7963 13.6396 11.8565 13.5993L13.6761 12.3893L16.7134 13.9073C16.6465 14.6753 16.294 15.3903 15.7255 15.911C15.1571 16.4318 14.414 16.7204 13.6431 16.72ZM11.0029 1.90042e-07C9.08772 -0.000355731 7.20566 0.499233 5.54284 1.44935C3.88003 2.39947 2.49409 3.76719 1.5221 5.41723C0.550119 7.06727 0.0257708 8.94245 0.000925945 10.8573C-0.0239189 12.7721 0.4516 14.6603 1.38045 16.335L0.0713498 20.2609C-0.00621867 20.4935 -0.0174755 20.7431 0.0388407 20.9817C0.095157 21.2203 0.216821 21.4385 0.390196 21.6119C0.563571 21.7852 0.781806 21.9069 1.02044 21.9632C1.25907 22.0195 1.50868 22.0083 1.74127 21.9307L5.66747 20.6217C7.13614 21.4354 8.77159 21.9022 10.4485 21.9862C12.1255 22.0702 13.7994 21.7693 15.3421 21.1065C16.8848 20.4437 18.2552 19.4366 19.3485 18.1623C20.4418 16.8881 21.2288 15.3805 21.6494 13.7551C22.0699 12.1297 22.1128 10.4296 21.7747 8.78503C21.4366 7.14049 20.7265 5.59516 19.6988 4.26744C18.6712 2.93971 17.3532 1.86482 15.8459 1.12513C14.3386 0.385436 12.6819 0.000563238 11.0029 1.90042e-07ZM11.0029 21.12C9.22345 21.1205 7.47534 20.652 5.93479 19.7615C5.86784 19.723 5.79202 19.7025 5.71477 19.7021C5.66726 19.7022 5.62008 19.71 5.57506 19.7252L1.46295 21.0958C1.38542 21.1217 1.30222 21.1254 1.22268 21.1066C1.14313 21.0879 1.07039 21.0473 1.01259 20.9895C0.954802 20.9317 0.914248 20.859 0.895476 20.7795C0.876704 20.6999 0.880456 20.6167 0.906312 20.5392L2.27701 16.4274C2.29679 16.3683 2.30377 16.3057 2.29752 16.2436C2.29126 16.1816 2.2719 16.1217 2.24071 16.0677C1.1249 14.1391 0.676785 11.8962 0.96588 9.68701C1.25498 7.47778 2.26512 5.4257 3.83961 3.84911C5.4141 2.27253 7.46491 1.25957 9.6739 0.967392C11.8829 0.675214 14.1266 1.12014 16.0569 2.23316C17.9871 3.34617 19.4961 5.06505 20.3498 7.12314C21.2034 9.18123 21.3539 11.4635 20.7779 13.6158C20.202 15.7682 18.9317 17.6703 17.1643 19.0271C15.3969 20.3839 13.2311 21.1196 11.0029 21.12Z"/>
</mask>
<path d="M17.3602 13.2462L13.84 11.4862C13.7707 11.4517 13.6935 11.436 13.6163 11.4409C13.539 11.4457 13.4644 11.4708 13.3999 11.5137L11.5694 12.7347C10.5632 12.2522 9.7517 11.4408 9.26914 10.4346L10.4902 8.6042C10.5331 8.53976 10.5582 8.46515 10.5631 8.38789C10.5679 8.31064 10.5523 8.23348 10.5177 8.1642L8.7576 4.6442C8.72109 4.57073 8.66476 4.50892 8.59497 4.46577C8.52518 4.42262 8.44472 4.39984 8.36267 4.4C7.31233 4.4 6.30502 4.81721 5.56232 5.55986C4.81962 6.3025 4.40237 7.30974 4.40237 8.36C4.40499 10.8098 5.37941 13.1585 7.1118 14.8908C8.8442 16.623 11.1931 17.5974 13.6431 17.6C14.6934 17.6 15.7007 17.1828 16.4434 16.4401C17.1861 15.6975 17.6034 14.6903 17.6034 13.64C17.6034 13.5583 17.5807 13.4781 17.5378 13.4086C17.4948 13.339 17.4333 13.2828 17.3602 13.2462ZM13.6431 16.72C11.4264 16.7177 9.3012 15.8361 7.73378 14.2688C6.16637 12.7015 5.28477 10.5765 5.28244 8.36C5.28231 7.58912 5.57127 6.84622 6.09227 6.27802C6.61326 5.70982 7.3284 5.35763 8.09645 5.291L9.61456 8.3281L8.40447 10.1475C8.36414 10.2075 8.33923 10.2766 8.33193 10.3485C8.32464 10.4205 8.3352 10.4931 8.36267 10.56C8.94731 11.9498 10.053 13.0554 11.4429 13.64C11.5099 13.6678 11.5827 13.6787 11.6548 13.6716C11.727 13.6645 11.7963 13.6396 11.8565 13.5993L13.6761 12.3893L16.7134 13.9073C16.6465 14.6753 16.294 15.3903 15.7255 15.911C15.1571 16.4318 14.414 16.7204 13.6431 16.72ZM11.0029 1.90042e-07C9.08772 -0.000355731 7.20566 0.499233 5.54284 1.44935C3.88003 2.39947 2.49409 3.76719 1.5221 5.41723C0.550119 7.06727 0.0257708 8.94245 0.000925945 10.8573C-0.0239189 12.7721 0.4516 14.6603 1.38045 16.335L0.0713498 20.2609C-0.00621867 20.4935 -0.0174755 20.7431 0.0388407 20.9817C0.095157 21.2203 0.216821 21.4385 0.390196 21.6119C0.563571 21.7852 0.781806 21.9069 1.02044 21.9632C1.25907 22.0195 1.50868 22.0083 1.74127 21.9307L5.66747 20.6217C7.13614 21.4354 8.77159 21.9022 10.4485 21.9862C12.1255 22.0702 13.7994 21.7693 15.3421 21.1065C16.8848 20.4437 18.2552 19.4366 19.3485 18.1623C20.4418 16.8881 21.2288 15.3805 21.6494 13.7551C22.0699 12.1297 22.1128 10.4296 21.7747 8.78503C21.4366 7.14049 20.7265 5.59516 19.6988 4.26744C18.6712 2.93971 17.3532 1.86482 15.8459 1.12513C14.3386 0.385436 12.6819 0.000563238 11.0029 1.90042e-07ZM11.0029 21.12C9.22345 21.1205 7.47534 20.652 5.93479 19.7615C5.86784 19.723 5.79202 19.7025 5.71477 19.7021C5.66726 19.7022 5.62008 19.71 5.57506 19.7252L1.46295 21.0958C1.38542 21.1217 1.30222 21.1254 1.22268 21.1066C1.14313 21.0879 1.07039 21.0473 1.01259 20.9895C0.954802 20.9317 0.914248 20.859 0.895476 20.7795C0.876704 20.6999 0.880456 20.6167 0.906312 20.5392L2.27701 16.4274C2.29679 16.3683 2.30377 16.3057 2.29752 16.2436C2.29126 16.1816 2.2719 16.1217 2.24071 16.0677C1.1249 14.1391 0.676785 11.8962 0.96588 9.68701C1.25498 7.47778 2.26512 5.4257 3.83961 3.84911C5.4141 2.27253 7.46491 1.25957 9.6739 0.967392C11.8829 0.675214 14.1266 1.12014 16.0569 2.23316C17.9871 3.34617 19.4961 5.06505 20.3498 7.12314C21.2034 9.18123 21.3539 11.4635 20.7779 13.6158C20.202 15.7682 18.9317 17.6703 17.1643 19.0271C15.3969 20.3839 13.2311 21.1196 11.0029 21.12Z" fill="white"/>
<path d="M17.3602 13.2462L17.8077 12.3519L17.8074 12.3518L17.3602 13.2462ZM13.84 11.4862L14.2872 10.5918L14.286 10.5912L13.84 11.4862ZM13.3999 11.5137L12.846 10.6812L12.845 10.6818L13.3999 11.5137ZM11.5694 12.7347L11.137 13.6364L11.6505 13.8826L12.1243 13.5666L11.5694 12.7347ZM9.26914 10.4346L8.43726 9.87964L8.12116 10.3535L8.36748 10.867L9.26914 10.4346ZM10.4902 8.6042L11.3221 9.15916L11.3227 9.15821L10.4902 8.6042ZM10.5177 8.1642L11.4127 7.71816L11.4121 7.71696L10.5177 8.1642ZM8.7576 4.6442L7.86208 5.08923L7.86318 5.09144L8.7576 4.6442ZM8.36267 4.4V5.4L8.36464 5.4L8.36267 4.4ZM4.40237 8.36H3.40237L3.40237 8.36107L4.40237 8.36ZM13.6431 17.6L13.642 18.6H13.6431V17.6ZM17.6034 13.64L16.6034 13.6393V13.64H17.6034ZM13.6431 16.72L13.642 17.72L13.6425 17.72L13.6431 16.72ZM5.28244 8.36L4.28244 8.36017L4.28244 8.36105L5.28244 8.36ZM8.09645 5.291L8.99093 4.84389L8.68708 4.23601L8.01003 4.29474L8.09645 5.291ZM9.61456 8.3281L10.4472 8.8819L10.7682 8.39936L10.509 7.88099L9.61456 8.3281ZM8.40447 10.1475L9.23452 10.7052L9.23712 10.7013L8.40447 10.1475ZM8.36267 10.56L7.43759 10.9399L7.44091 10.9478L8.36267 10.56ZM11.4429 13.64L11.0552 14.5618L11.0592 14.5635L11.4429 13.64ZM11.8565 13.5993L11.3028 12.7666L11.3002 12.7683L11.8565 13.5993ZM13.6761 12.3893L14.1231 11.4948L13.6048 11.2358L13.1223 11.5566L13.6761 12.3893ZM16.7134 13.9073L17.7096 13.9941L17.7686 13.3167L17.1605 13.0128L16.7134 13.9073ZM11.0029 1.90042e-07L11.0032 -1L11.0031 -1L11.0029 1.90042e-07ZM1.38045 16.335L2.3291 16.6513L2.46814 16.2344L2.25495 15.85L1.38045 16.335ZM0.0713498 20.2609L1.01998 20.5773L1.02 20.5772L0.0713498 20.2609ZM1.74127 21.9307L1.42499 20.982L1.42493 20.9821L1.74127 21.9307ZM5.66747 20.6217L6.1521 19.747L5.76788 19.5341L5.35118 19.673L5.66747 20.6217ZM11.0029 21.12L11.0027 20.12H11.0026L11.0029 21.12ZM5.93479 19.7615L6.43522 18.8957L6.43367 18.8948L5.93479 19.7615ZM5.71477 19.7021L5.71985 18.7021L5.71251 18.7021L5.71477 19.7021ZM5.57506 19.7252L5.89127 20.6739L5.8948 20.6727L5.57506 19.7252ZM1.46295 21.0958L1.14675 20.1471L1.14661 20.1472L1.46295 21.0958ZM0.906312 20.5392L1.85494 20.8556L1.85499 20.8554L0.906312 20.5392ZM2.27701 16.4274L1.32867 16.1102L1.32834 16.1111L2.27701 16.4274ZM2.24071 16.0677L3.10655 15.5674L3.10628 15.5669L2.24071 16.0677ZM17.8074 12.3518L14.2872 10.5918L13.3928 12.3806L16.9131 14.1406L17.8074 12.3518ZM14.286 10.5912C14.0592 10.4782 13.8067 10.427 13.5539 10.4428L13.6786 12.4389C13.5803 12.4451 13.4822 12.4252 13.394 12.3812L14.286 10.5912ZM13.5539 10.4428C13.3011 10.4586 13.0569 10.5408 12.846 10.6812L13.9539 12.3462C13.8719 12.4008 13.7769 12.4328 13.6786 12.4389L13.5539 10.4428ZM12.845 10.6818L11.0145 11.9028L12.1243 13.5666L13.9548 12.3456L12.845 10.6818ZM12.0018 11.833C11.2008 11.4489 10.5549 10.803 10.1708 10.0022L8.36748 10.867C8.9485 12.0785 9.92551 13.0554 11.137 13.6364L12.0018 11.833ZM10.101 10.9896L11.3221 9.15916L9.65835 8.04924L8.43726 9.87964L10.101 10.9896ZM11.3227 9.15821C11.4631 8.94732 11.5453 8.70312 11.5611 8.45028L9.56501 8.32551C9.57116 8.22717 9.60314 8.1322 9.65772 8.05019L11.3227 9.15821ZM11.5611 8.45028C11.5769 8.19743 11.5257 7.94489 11.4127 7.71816L9.62272 8.61024C9.57877 8.52206 9.55887 8.42385 9.56501 8.32551L11.5611 8.45028ZM11.4121 7.71696L9.65201 4.19696L7.86318 5.09144L9.62332 8.61144L11.4121 7.71696ZM9.65312 4.19917C9.53362 3.95871 9.34927 3.75645 9.12089 3.61524L8.06905 5.31631C7.98024 5.26139 7.90855 5.18274 7.86208 5.08922L9.65312 4.19917ZM9.12089 3.61524C8.89251 3.47402 8.6292 3.39947 8.3607 3.4L8.36464 5.4C8.26024 5.4002 8.15786 5.37122 8.06905 5.31631L9.12089 3.61524ZM8.36267 3.4C7.04714 3.4 5.78548 3.92255 4.85524 4.85272L6.2694 6.26699C6.82456 5.71187 7.57753 5.4 8.36267 5.4V3.4ZM4.85524 4.85272C3.92499 5.7829 3.40237 7.0445 3.40237 8.36H5.40237C5.40237 7.57498 5.71424 6.8221 6.2694 6.26699L4.85524 4.85272ZM3.40237 8.36107C3.40528 11.0757 4.48504 13.6784 6.40472 15.5979L7.81888 14.1836C6.27377 12.6386 5.40471 10.5439 5.40237 8.35893L3.40237 8.36107ZM6.40472 15.5979C8.3244 17.5174 10.9272 18.5971 13.642 18.6L13.6441 16.6C11.459 16.5977 9.364 15.7286 7.81888 14.1836L6.40472 15.5979ZM13.6431 18.6C14.9586 18.6 16.2203 18.0774 17.1505 17.1473L15.7363 15.733C15.1812 16.2881 14.4282 16.6 13.6431 16.6V18.6ZM17.1505 17.1473C18.0807 16.2171 18.6034 14.9555 18.6034 13.64H16.6034C16.6034 14.425 16.2915 15.1779 15.7363 15.733L17.1505 17.1473ZM18.6034 13.6407C18.6036 13.3732 18.5292 13.1109 18.3887 12.8832L16.6869 13.9339C16.6322 13.8454 16.6033 13.7433 16.6034 13.6393L18.6034 13.6407ZM18.3887 12.8832C18.2481 12.6556 18.047 12.4716 17.8077 12.3519L16.9128 14.1405C16.8197 14.0939 16.7415 14.0224 16.6869 13.9339L18.3887 12.8832ZM13.6441 15.72C11.6923 15.7179 9.821 14.9417 8.44086 13.5617L7.0267 14.976C8.7814 16.7305 11.1605 17.7174 13.642 17.72L13.6441 15.72ZM8.44086 13.5617C7.06073 12.1817 6.28449 10.3106 6.28244 8.35895L4.28244 8.36105C4.28505 10.8424 5.272 13.2214 7.0267 14.976L8.44086 13.5617ZM6.28244 8.35983C6.28235 7.83926 6.47749 7.33757 6.82933 6.95385L5.3552 5.6022C4.66506 6.35488 4.28227 7.33899 4.28244 8.36017L6.28244 8.35983ZM6.82933 6.95385C7.18118 6.57012 7.66415 6.33226 8.18287 6.28726L8.01003 4.29474C6.99265 4.38299 6.04535 4.84952 5.3552 5.6022L6.82933 6.95385ZM7.20197 5.73811L8.72008 8.77521L10.509 7.88099L8.99093 4.84389L7.20197 5.73811ZM8.78191 7.7743L7.57182 9.5937L9.23712 10.7013L10.4472 8.8819L8.78191 7.7743ZM7.57443 9.58979C7.44244 9.78625 7.36089 10.0122 7.33703 10.2477L9.32684 10.4493C9.31756 10.5409 9.28584 10.6288 9.23451 10.7052L7.57443 9.58979ZM7.33703 10.2477C7.31317 10.4832 7.34772 10.7209 7.43762 10.9398L9.28772 10.1802C9.32268 10.2653 9.33612 10.3578 9.32684 10.4493L7.33703 10.2477ZM7.44091 10.9478C8.12692 12.5785 9.42433 13.8758 11.0552 14.5618L11.8306 12.7182C10.6817 12.235 9.7677 11.3211 9.28443 10.1722L7.44091 10.9478ZM11.0592 14.5635C11.2784 14.6545 11.5166 14.69 11.7527 14.6668L11.5569 12.6764C11.6487 12.6673 11.7414 12.6811 11.8266 12.7165L11.0592 14.5635ZM11.7527 14.6668C11.9889 14.6435 12.2156 14.5623 12.4128 14.4303L11.3002 12.7683C11.3769 12.717 11.4651 12.6854 11.5569 12.6764L11.7527 14.6668ZM12.4103 14.432L14.2298 13.222L13.1223 11.5566L11.3028 12.7666L12.4103 14.432ZM13.229 13.2838L16.2663 14.8018L17.1605 13.0128L14.1231 11.4948L13.229 13.2838ZM15.7172 13.8205C15.672 14.3391 15.4339 14.822 15.0501 15.1736L16.401 16.6484C17.154 15.9586 17.621 15.0114 17.7096 13.9941L15.7172 13.8205ZM15.0501 15.1736C14.6662 15.5253 14.1643 15.7203 13.6436 15.72L13.6425 17.72C14.6637 17.7206 15.648 17.3382 16.401 16.6484L15.0501 15.1736ZM11.0031 -1C8.91383 -1.00039 6.86069 -0.45539 5.04673 0.581092L6.03896 2.31761C7.55062 1.45386 9.26161 0.999677 11.0027 1L11.0031 -1ZM5.04673 0.581092C3.23277 1.61757 1.72083 3.10963 0.660484 4.90968L2.38373 5.92478C3.26735 4.42475 4.5273 3.18136 6.03896 2.31761L5.04673 0.581092ZM0.660484 4.90968C-0.399866 6.70972 -0.971886 8.75539 -0.99899 10.8443L1.00084 10.8703C1.02343 9.12952 1.5001 7.42481 2.38373 5.92478L0.660484 4.90968ZM-0.99899 10.8443C-1.02609 12.9333 -0.507341 14.9931 0.505949 16.82L2.25495 15.85C1.41054 14.3275 0.978256 12.611 1.00084 10.8703L-0.99899 10.8443ZM0.431798 16.0187L-0.8773 19.9446L1.02 20.5772L2.3291 16.6513L0.431798 16.0187ZM-0.877282 19.9445C-1.01362 20.3533 -1.0334 20.792 -0.934421 21.2114L1.0121 20.752C0.998453 20.6941 1.00118 20.6337 1.01998 20.5773L-0.877282 19.9445ZM-0.934421 21.2114C-0.835437 21.6308 -0.621599 22.0143 -0.316884 22.319L1.09728 20.9047C1.05524 20.8627 1.02575 20.8098 1.0121 20.752L-0.934421 21.2114ZM-0.316884 22.319C-0.0121682 22.6237 0.371381 22.8375 0.790772 22.9365L1.25011 20.9899C1.19223 20.9763 1.13931 20.9468 1.09728 20.9047L-0.316884 22.319ZM0.790772 22.9365C1.21016 23.0354 1.64883 23.0157 2.05761 22.8793L1.42493 20.9821C1.36852 21.0009 1.30799 21.0036 1.25011 20.9899L0.790772 22.9365ZM2.05756 22.8794L5.98375 21.5704L5.35118 19.673L1.42499 20.982L2.05756 22.8794ZM5.18283 21.4964C6.785 22.3841 8.56912 22.8933 10.3985 22.985L10.4986 20.9875C8.97407 20.9111 7.48727 20.4867 6.1521 19.747L5.18283 21.4964ZM10.3985 22.985C12.2279 23.0766 14.054 22.7484 15.7368 22.0253L14.9473 20.1877C13.5449 20.7903 12.0231 21.0639 10.4986 20.9875L10.3985 22.985ZM15.7368 22.0253C17.4197 21.3023 18.9148 20.2036 20.1075 18.8135L18.5896 17.5112C17.5957 18.6696 16.3498 19.5852 14.9473 20.1877L15.7368 22.0253ZM20.1075 18.8135C21.3001 17.4234 22.1587 15.7787 22.6175 14.0056L20.6812 13.5046C20.2989 14.9822 19.5834 16.3528 18.5896 17.5112L20.1075 18.8135ZM22.6175 14.0056C23.0763 12.2324 23.123 10.3777 22.7542 8.58365L20.7952 8.9864C21.1025 10.4814 21.0635 12.027 20.6812 13.5046L22.6175 14.0056ZM22.7542 8.58365C22.3854 6.7896 21.6107 5.10378 20.4896 3.65536L18.908 4.87952C19.8423 6.08654 20.4878 7.49138 20.7952 8.9864L22.7542 8.58365ZM20.4896 3.65536C19.3685 2.20693 17.9307 1.03433 16.2864 0.227402L15.4053 2.02286C16.7756 2.69532 17.9738 3.67249 18.908 4.87952L20.4896 3.65536ZM16.2864 0.227402C14.6421 -0.57953 12.8349 -0.999386 11.0032 -1L11.0025 1C12.529 1.00051 14.035 1.3504 15.4053 2.02286L16.2864 0.227402ZM11.0026 20.12C9.39895 20.1205 7.82356 19.6982 6.43522 18.8957L5.43436 20.6273C7.12712 21.6057 9.04795 22.1206 11.0032 22.12L11.0026 20.12ZM6.43367 18.8948C6.21645 18.7698 5.97047 18.7034 5.71985 18.7021L5.70969 20.7021C5.61357 20.7016 5.51923 20.6761 5.43591 20.6282L6.43367 18.8948ZM5.71251 18.7021C5.55702 18.7025 5.40263 18.728 5.25532 18.7777L5.8948 20.6727C5.83753 20.692 5.7775 20.702 5.71703 20.7021L5.71251 18.7021ZM5.25886 18.7765L1.14675 20.1471L1.77916 22.0445L5.89127 20.6739L5.25886 18.7765ZM1.14661 20.1472C1.24526 20.1143 1.35113 20.1095 1.45234 20.1334L0.993008 22.0799C1.25331 22.1413 1.52558 22.129 1.77929 22.0444L1.14661 20.1472ZM1.45234 20.1334C1.55356 20.1572 1.64613 20.2089 1.71967 20.2824L0.305514 21.6967C0.494644 21.8858 0.732704 22.0185 0.993008 22.0799L1.45234 20.1334ZM1.71967 20.2824C1.79322 20.3559 1.84484 20.4485 1.86874 20.5498L-0.0777854 21.0092C-0.0163461 21.2695 0.116383 21.5075 0.305514 21.6967L1.71967 20.2824ZM1.86874 20.5498C1.89263 20.651 1.88786 20.7569 1.85494 20.8556L-0.0423192 20.2228C-0.126943 20.4765 -0.139225 20.7488 -0.0777854 21.0092L1.86874 20.5498ZM1.85499 20.8554L3.22569 16.7436L1.32834 16.1111L-0.0423637 20.2229L1.85499 20.8554ZM3.22536 16.7446C3.29007 16.5512 3.31294 16.3462 3.29246 16.1432L1.30257 16.3441C1.2946 16.2651 1.3035 16.1854 1.32867 16.1102L3.22536 16.7446ZM3.29246 16.1432C3.27198 15.9403 3.20861 15.744 3.10655 15.5674L1.37487 16.568C1.33518 16.4993 1.31054 16.423 1.30257 16.3441L3.29246 16.1432ZM3.10628 15.5669C2.10073 13.8289 1.6969 11.8077 1.95743 9.81676L-0.0256663 9.55726C-0.343331 11.9848 0.149071 14.4493 1.37514 16.5685L3.10628 15.5669ZM1.95743 9.81676C2.21795 7.82585 3.12828 5.97655 4.54719 4.55575L3.13203 3.14247C1.40197 4.87484 0.291998 7.12971 -0.0256663 9.55726L1.95743 9.81676ZM4.54719 4.55575C5.9661 3.13494 7.81428 2.22207 9.80503 1.95876L9.54277 -0.0239732C7.11554 0.297073 4.8621 1.41011 3.13203 3.14247L4.54719 4.55575ZM9.80503 1.95876C11.7958 1.69545 13.8178 2.09642 15.5573 3.09946L16.5564 1.36685C14.4354 0.143868 11.97 -0.345019 9.54277 -0.0239732L9.80503 1.95876ZM15.5573 3.09946C17.2969 4.10251 18.6568 5.65154 19.4261 7.50625L21.2735 6.74003C20.3355 4.47856 18.6774 2.58984 16.5564 1.36685L15.5573 3.09946ZM19.4261 7.50625C20.1953 9.36096 20.3309 11.4177 19.8119 13.3573L21.7439 13.8743C22.3768 11.5093 22.2114 9.00149 21.2735 6.74003L19.4261 7.50625ZM19.8119 13.3573C19.2929 15.297 18.1482 17.0111 16.5554 18.2339L17.7733 19.8203C19.7153 18.3294 21.1111 16.2394 21.7439 13.8743L19.8119 13.3573ZM16.5554 18.2339C14.9626 19.4567 13.0108 20.1196 11.0027 20.12L11.003 22.12C13.4514 22.1196 15.8312 21.3112 17.7733 19.8203L16.5554 18.2339Z" fill="#EBEBEB" mask="url(#path-1-inside-1_710_1641)"/>
</svg>
